{
 "cells": [
  {
   "cell_type": "code",
   "execution_count": 1,
   "metadata": {},
   "outputs": [
    {
     "name": "stdout",
     "output_type": "stream",
     "text": [
      "Reading package lists... Done\n",
      "Building dependency tree       \n",
      "Reading state information... Done\n",
      "The following packages were automatically installed and are no longer required:\n",
      "  libaio1 librados2 librbd1\n",
      "Use 'sudo apt autoremove' to remove them.\n",
      "The following additional packages will be installed:\n",
      "  libass9 libavc1394-0 libavdevice57 libavfilter6 libbs2b0 libcaca0\n",
      "  libcdio-cdda2 libcdio-paranoia2 libcdio17 libflite1 libiec61883-0\n",
      "  libjack-jackd2-0 libmysofa0 libnorm1 libopenal-data libopenal1 libpgm-5.2-0\n",
      "  libpostproc54 librubberband2 libsamplerate0 libsdl2-2.0-0 libsndio6.1\n",
      "  libsodium23 libzmq5\n",
      "Suggested packages:\n",
      "  ffmpeg-doc jackd2 libportaudio2 sndiod\n",
      "The following NEW packages will be installed:\n",
      "  ffmpeg libass9 libavc1394-0 libavdevice57 libavfilter6 libbs2b0 libcaca0\n",
      "  libcdio-cdda2 libcdio-paranoia2 libcdio17 libflite1 libiec61883-0\n",
      "  libjack-jackd2-0 libmysofa0 libnorm1 libopenal-data libopenal1 libpgm-5.2-0\n",
      "  libpostproc54 librubberband2 libsamplerate0 libsdl2-2.0-0 libsndio6.1\n",
      "  libsodium23 libzmq5\n",
      "0 upgraded, 25 newly installed, 0 to remove and 14 not upgraded.\n",
      "Need to get 18.7 MB of archives.\n",
      "After this operation, 42.8 MB of additional disk space will be used.\n",
      "Get:1 http://us-east-1.ec2.archive.ubuntu.com/ubuntu bionic/main amd64 libavc1394-0 amd64 0.5.4-4build1 [16.1 kB]\n",
      "Get:2 http://us-east-1.ec2.archive.ubuntu.com/ubuntu bionic/universe amd64 libass9 amd64 1:0.14.0-1 [88.2 kB]\n",
      "Get:3 http://us-east-1.ec2.archive.ubuntu.com/ubuntu bionic/universe amd64 libbs2b0 amd64 3.1.0+dfsg-2.2 [10.5 kB]\n",
      "Get:4 http://us-east-1.ec2.archive.ubuntu.com/ubuntu bionic/universe amd64 libflite1 amd64 2.1-release-1 [12.8 MB]\n",
      "Get:5 http://us-east-1.ec2.archive.ubuntu.com/ubuntu bionic-updates/universe amd64 libmysofa0 amd64 0.6~dfsg0-3+deb10u1build1 [38.5 kB]\n",
      "Get:6 http://us-east-1.ec2.archive.ubuntu.com/ubuntu bionic-updates/universe amd64 libpostproc54 amd64 7:3.4.8-0ubuntu0.2 [50.3 kB]\n",
      "Get:7 http://us-east-1.ec2.archive.ubuntu.com/ubuntu bionic/main amd64 libsamplerate0 amd64 0.1.9-1 [938 kB]\n",
      "Get:8 http://us-east-1.ec2.archive.ubuntu.com/ubuntu bionic/universe amd64 librubberband2 amd64 1.8.1-7ubuntu2 [86.7 kB]\n",
      "Get:9 http://us-east-1.ec2.archive.ubuntu.com/ubuntu bionic/universe amd64 libnorm1 amd64 1.5r6+dfsg1-6 [224 kB]\n",
      "Get:10 http://us-east-1.ec2.archive.ubuntu.com/ubuntu bionic/universe amd64 libpgm-5.2-0 amd64 5.2.122~dfsg-2 [157 kB]\n",
      "Get:11 http://us-east-1.ec2.archive.ubuntu.com/ubuntu bionic/main amd64 libsodium23 amd64 1.0.16-2 [143 kB]\n",
      "Get:12 http://us-east-1.ec2.archive.ubuntu.com/ubuntu bionic-updates/universe amd64 libzmq5 amd64 4.2.5-1ubuntu0.2 [221 kB]\n",
      "Get:13 http://us-east-1.ec2.archive.ubuntu.com/ubuntu bionic-updates/universe amd64 libavfilter6 amd64 7:3.4.8-0ubuntu0.2 [874 kB]\n",
      "Get:14 http://us-east-1.ec2.archive.ubuntu.com/ubuntu bionic-updates/main amd64 libcaca0 amd64 0.99.beta19-2ubuntu0.18.04.1 [203 kB]\n",
      "Get:15 http://us-east-1.ec2.archive.ubuntu.com/ubuntu bionic/main amd64 libcdio17 amd64 1.0.0-2ubuntu2 [58.8 kB]\n",
      "Get:16 http://us-east-1.ec2.archive.ubuntu.com/ubuntu bionic/main amd64 libcdio-cdda2 amd64 10.2+0.94+2-2build1 [17.7 kB]\n",
      "Get:17 http://us-east-1.ec2.archive.ubuntu.com/ubuntu bionic/main amd64 libcdio-paranoia2 amd64 10.2+0.94+2-2build1 [17.2 kB]\n",
      "Get:18 http://us-east-1.ec2.archive.ubuntu.com/ubuntu bionic/main amd64 libiec61883-0 amd64 1.2.0-2 [23.5 kB]\n",
      "Get:19 http://us-east-1.ec2.archive.ubuntu.com/ubuntu bionic/main amd64 libjack-jackd2-0 amd64 1.9.12~dfsg-2 [263 kB]\n",
      "Get:20 http://us-east-1.ec2.archive.ubuntu.com/ubuntu bionic/universe amd64 libopenal-data all 1:1.18.2-2 [102 kB]\n",
      "Get:21 http://us-east-1.ec2.archive.ubuntu.com/ubuntu bionic/universe amd64 libsndio6.1 amd64 1.1.0-3 [23.4 kB]\n",
      "Get:22 http://us-east-1.ec2.archive.ubuntu.com/ubuntu bionic/universe amd64 libopenal1 amd64 1:1.18.2-2 [266 kB]\n",
      "Get:23 http://us-east-1.ec2.archive.ubuntu.com/ubuntu bionic-updates/universe amd64 libsdl2-2.0-0 amd64 2.0.8+dfsg1-1ubuntu1.18.04.4 [382 kB]\n",
      "Get:24 http://us-east-1.ec2.archive.ubuntu.com/ubuntu bionic-updates/universe amd64 libavdevice57 amd64 7:3.4.8-0ubuntu0.2 [74.9 kB]\n",
      "Get:25 http://us-east-1.ec2.archive.ubuntu.com/ubuntu bionic-updates/universe amd64 ffmpeg amd64 7:3.4.8-0ubuntu0.2 [1587 kB]\n",
      "Fetched 18.7 MB in 0s (64.3 MB/s)\n",
      "Selecting previously unselected package libavc1394-0:amd64.\n",
      "(Reading database ... 178801 files and directories currently installed.)\n",
      "Preparing to unpack .../00-libavc1394-0_0.5.4-4build1_amd64.deb ...\n",
      "Unpacking libavc1394-0:amd64 (0.5.4-4build1) ...\n",
      "Selecting previously unselected package libass9:amd64.\n",
      "Preparing to unpack .../01-libass9_1%3a0.14.0-1_amd64.deb ...\n",
      "Unpacking libass9:amd64 (1:0.14.0-1) ...\n",
      "Selecting previously unselected package libbs2b0:amd64.\n",
      "Preparing to unpack .../02-libbs2b0_3.1.0+dfsg-2.2_amd64.deb ...\n",
      "Unpacking libbs2b0:amd64 (3.1.0+dfsg-2.2) ...\n",
      "Selecting previously unselected package libflite1:amd64.\n",
      "Preparing to unpack .../03-libflite1_2.1-release-1_amd64.deb ...\n",
      "Unpacking libflite1:amd64 (2.1-release-1) ...\n",
      "Selecting previously unselected package libmysofa0:amd64.\n",
      "Preparing to unpack .../04-libmysofa0_0.6~dfsg0-3+deb10u1build1_amd64.deb ...\n",
      "Unpacking libmysofa0:amd64 (0.6~dfsg0-3+deb10u1build1) ...\n",
      "Selecting previously unselected package libpostproc54:amd64.\n",
      "Preparing to unpack .../05-libpostproc54_7%3a3.4.8-0ubuntu0.2_amd64.deb ...\n",
      "Unpacking libpostproc54:amd64 (7:3.4.8-0ubuntu0.2) ...\n",
      "Selecting previously unselected package libsamplerate0:amd64.\n",
      "Preparing to unpack .../06-libsamplerate0_0.1.9-1_amd64.deb ...\n",
      "Unpacking libsamplerate0:amd64 (0.1.9-1) ...\n",
      "Selecting previously unselected package librubberband2:amd64.\n",
      "Preparing to unpack .../07-librubberband2_1.8.1-7ubuntu2_amd64.deb ...\n",
      "Unpacking librubberband2:amd64 (1.8.1-7ubuntu2) ...\n",
      "Selecting previously unselected package libnorm1:amd64.\n",
      "Preparing to unpack .../08-libnorm1_1.5r6+dfsg1-6_amd64.deb ...\n",
      "Unpacking libnorm1:amd64 (1.5r6+dfsg1-6) ...\n",
      "Selecting previously unselected package libpgm-5.2-0:amd64.\n",
      "Preparing to unpack .../09-libpgm-5.2-0_5.2.122~dfsg-2_amd64.deb ...\n",
      "Unpacking libpgm-5.2-0:amd64 (5.2.122~dfsg-2) ...\n",
      "Selecting previously unselected package libsodium23:amd64.\n",
      "Preparing to unpack .../10-libsodium23_1.0.16-2_amd64.deb ...\n",
      "Unpacking libsodium23:amd64 (1.0.16-2) ...\n",
      "Selecting previously unselected package libzmq5:amd64.\n",
      "Preparing to unpack .../11-libzmq5_4.2.5-1ubuntu0.2_amd64.deb ...\n",
      "Unpacking libzmq5:amd64 (4.2.5-1ubuntu0.2) ...\n",
      "Selecting previously unselected package libavfilter6:amd64.\n",
      "Preparing to unpack .../12-libavfilter6_7%3a3.4.8-0ubuntu0.2_amd64.deb ...\n",
      "Unpacking libavfilter6:amd64 (7:3.4.8-0ubuntu0.2) ...\n",
      "Selecting previously unselected package libcaca0:amd64.\n",
      "Preparing to unpack .../13-libcaca0_0.99.beta19-2ubuntu0.18.04.1_amd64.deb ...\n",
      "Unpacking libcaca0:amd64 (0.99.beta19-2ubuntu0.18.04.1) ...\n",
      "Selecting previously unselected package libcdio17:amd64.\n",
      "Preparing to unpack .../14-libcdio17_1.0.0-2ubuntu2_amd64.deb ...\n",
      "Unpacking libcdio17:amd64 (1.0.0-2ubuntu2) ...\n",
      "Selecting previously unselected package libcdio-cdda2:amd64.\n",
      "Preparing to unpack .../15-libcdio-cdda2_10.2+0.94+2-2build1_amd64.deb ...\n",
      "Unpacking libcdio-cdda2:amd64 (10.2+0.94+2-2build1) ...\n",
      "Selecting previously unselected package libcdio-paranoia2:amd64.\n",
      "Preparing to unpack .../16-libcdio-paranoia2_10.2+0.94+2-2build1_amd64.deb ...\n",
      "Unpacking libcdio-paranoia2:amd64 (10.2+0.94+2-2build1) ...\n",
      "Selecting previously unselected package libiec61883-0:amd64.\n",
      "Preparing to unpack .../17-libiec61883-0_1.2.0-2_amd64.deb ...\n",
      "Unpacking libiec61883-0:amd64 (1.2.0-2) ...\n",
      "Selecting previously unselected package libjack-jackd2-0:amd64.\n",
      "Preparing to unpack .../18-libjack-jackd2-0_1.9.12~dfsg-2_amd64.deb ...\n",
      "Unpacking libjack-jackd2-0:amd64 (1.9.12~dfsg-2) ...\n",
      "Selecting previously unselected package libopenal-data.\n",
      "Preparing to unpack .../19-libopenal-data_1%3a1.18.2-2_all.deb ...\n",
      "Unpacking libopenal-data (1:1.18.2-2) ...\n",
      "Selecting previously unselected package libsndio6.1:amd64.\n",
      "Preparing to unpack .../20-libsndio6.1_1.1.0-3_amd64.deb ...\n",
      "Unpacking libsndio6.1:amd64 (1.1.0-3) ...\n",
      "Selecting previously unselected package libopenal1:amd64.\n",
      "Preparing to unpack .../21-libopenal1_1%3a1.18.2-2_amd64.deb ...\n",
      "Unpacking libopenal1:amd64 (1:1.18.2-2) ...\n"
     ]
    },
    {
     "name": "stdout",
     "output_type": "stream",
     "text": [
      "Selecting previously unselected package libsdl2-2.0-0:amd64.\n",
      "Preparing to unpack .../22-libsdl2-2.0-0_2.0.8+dfsg1-1ubuntu1.18.04.4_amd64.deb ...\n",
      "Unpacking libsdl2-2.0-0:amd64 (2.0.8+dfsg1-1ubuntu1.18.04.4) ...\n",
      "Selecting previously unselected package libavdevice57:amd64.\n",
      "Preparing to unpack .../23-libavdevice57_7%3a3.4.8-0ubuntu0.2_amd64.deb ...\n",
      "Unpacking libavdevice57:amd64 (7:3.4.8-0ubuntu0.2) ...\n",
      "Selecting previously unselected package ffmpeg.\n",
      "Preparing to unpack .../24-ffmpeg_7%3a3.4.8-0ubuntu0.2_amd64.deb ...\n",
      "Unpacking ffmpeg (7:3.4.8-0ubuntu0.2) ...\n",
      "Setting up libpgm-5.2-0:amd64 (5.2.122~dfsg-2) ...\n",
      "Setting up libflite1:amd64 (2.1-release-1) ...\n",
      "Setting up libass9:amd64 (1:0.14.0-1) ...\n",
      "Setting up libiec61883-0:amd64 (1.2.0-2) ...\n",
      "Setting up libopenal-data (1:1.18.2-2) ...\n",
      "Setting up libbs2b0:amd64 (3.1.0+dfsg-2.2) ...\n",
      "Setting up libnorm1:amd64 (1.5r6+dfsg1-6) ...\n",
      "Setting up libsodium23:amd64 (1.0.16-2) ...\n",
      "Setting up libavc1394-0:amd64 (0.5.4-4build1) ...\n",
      "Setting up libpostproc54:amd64 (7:3.4.8-0ubuntu0.2) ...\n",
      "Setting up libcaca0:amd64 (0.99.beta19-2ubuntu0.18.04.1) ...\n",
      "Setting up libsamplerate0:amd64 (0.1.9-1) ...\n",
      "Setting up libsndio6.1:amd64 (1.1.0-3) ...\n",
      "Setting up libmysofa0:amd64 (0.6~dfsg0-3+deb10u1build1) ...\n",
      "Setting up libcdio17:amd64 (1.0.0-2ubuntu2) ...\n",
      "Setting up libzmq5:amd64 (4.2.5-1ubuntu0.2) ...\n",
      "Setting up libcdio-cdda2:amd64 (10.2+0.94+2-2build1) ...\n",
      "Setting up librubberband2:amd64 (1.8.1-7ubuntu2) ...\n",
      "Setting up libsdl2-2.0-0:amd64 (2.0.8+dfsg1-1ubuntu1.18.04.4) ...\n",
      "Setting up libcdio-paranoia2:amd64 (10.2+0.94+2-2build1) ...\n",
      "Setting up libjack-jackd2-0:amd64 (1.9.12~dfsg-2) ...\n",
      "Setting up libopenal1:amd64 (1:1.18.2-2) ...\n",
      "Setting up libavfilter6:amd64 (7:3.4.8-0ubuntu0.2) ...\n",
      "Setting up libavdevice57:amd64 (7:3.4.8-0ubuntu0.2) ...\n",
      "Setting up ffmpeg (7:3.4.8-0ubuntu0.2) ...\n",
      "Processing triggers for libc-bin (2.27-3ubuntu1.2) ...\n",
      "Processing triggers for man-db (2.8.3-2ubuntu0.1) ...\n"
     ]
    }
   ],
   "source": [
    "!sudo apt-get install ffmpeg -y "
   ]
  },
  {
   "cell_type": "code",
   "execution_count": 2,
   "metadata": {},
   "outputs": [
    {
     "name": "stdout",
     "output_type": "stream",
     "text": [
      "--2020-09-28 17:18:35--  https://tinyurl.com/y6ylxta5\n",
      "Resolving tinyurl.com (tinyurl.com)... 104.20.139.65, 104.20.138.65, 172.67.1.225, ...\n",
      "Connecting to tinyurl.com (tinyurl.com)|104.20.139.65|:443... connected.\n",
      "HTTP request sent, awaiting response... 301 Moved Permanently\n",
      "Location: https://tomofun-gpu-acc.s3.us-east-1.amazonaws.com/AWS_Networking_Fundamentals.mp4?X-Amz-Algorithm=AWS4-HMAC-SHA256&X-Amz-Credential=AKIATLORAEYMTX7JY4ER%2F20200928%2Fus-east-1%2Fs3%2Faws4_request&X-Amz-Date=20200928T163449Z&X-Amz-Expires=604800&X-Amz-SignedHeaders=host&X-Amz-Signature=c8461917ee0c6d4bba9c764482813954e8617b2fc13f70ca7a30a0cccb18a32f [following]\n",
      "--2020-09-28 17:18:35--  https://tomofun-gpu-acc.s3.us-east-1.amazonaws.com/AWS_Networking_Fundamentals.mp4?X-Amz-Algorithm=AWS4-HMAC-SHA256&X-Amz-Credential=AKIATLORAEYMTX7JY4ER%2F20200928%2Fus-east-1%2Fs3%2Faws4_request&X-Amz-Date=20200928T163449Z&X-Amz-Expires=604800&X-Amz-SignedHeaders=host&X-Amz-Signature=c8461917ee0c6d4bba9c764482813954e8617b2fc13f70ca7a30a0cccb18a32f\n",
      "Resolving tomofun-gpu-acc.s3.us-east-1.amazonaws.com (tomofun-gpu-acc.s3.us-east-1.amazonaws.com)... 52.216.1.133\n",
      "Connecting to tomofun-gpu-acc.s3.us-east-1.amazonaws.com (tomofun-gpu-acc.s3.us-east-1.amazonaws.com)|52.216.1.133|:443... connected.\n",
      "HTTP request sent, awaiting response... 200 OK\n",
      "Length: 102748360 (98M) [video/mp4]\n",
      "Saving to: ‘input.mp4’\n",
      "\n",
      "input.mp4           100%[===================>]  97.99M  51.6MB/s    in 1.9s    \n",
      "\n",
      "2020-09-28 17:18:37 (51.6 MB/s) - ‘input.mp4’ saved [102748360/102748360]\n",
      "\n"
     ]
    }
   ],
   "source": [
    "!wget -O input.mp4 https://tinyurl.com/y6ylxta5"
   ]
  },
  {
   "cell_type": "code",
   "execution_count": 3,
   "metadata": {},
   "outputs": [
    {
     "name": "stdout",
     "output_type": "stream",
     "text": [
      "rm: cannot remove 'output.mp4': No such file or directory\n",
      "ffmpeg version 3.4.8-0ubuntu0.2 Copyright (c) 2000-2020 the FFmpeg developers\n",
      "  built with gcc 7 (Ubuntu 7.5.0-3ubuntu1~18.04)\n",
      "  configuration: --prefix=/usr --extra-version=0ubuntu0.2 --toolchain=hardened --libdir=/usr/lib/x86_64-linux-gnu --incdir=/usr/include/x86_64-linux-gnu --enable-gpl --disable-stripping --enable-avresample --enable-avisynth --enable-gnutls --enable-ladspa --enable-libass --enable-libbluray --enable-libbs2b --enable-libcaca --enable-libcdio --enable-libflite --enable-libfontconfig --enable-libfreetype --enable-libfribidi --enable-libgme --enable-libgsm --enable-libmp3lame --enable-libmysofa --enable-libopenjpeg --enable-libopenmpt --enable-libopus --enable-libpulse --enable-librubberband --enable-librsvg --enable-libshine --enable-libsnappy --enable-libsoxr --enable-libspeex --enable-libssh --enable-libtheora --enable-libtwolame --enable-libvorbis --enable-libvpx --enable-libwavpack --enable-libwebp --enable-libx265 --enable-libxml2 --enable-libxvid --enable-libzmq --enable-libzvbi --enable-omx --enable-openal --enable-opengl --enable-sdl2 --enable-libdc1394 --enable-libdrm --enable-libiec61883 --enable-chromaprint --enable-frei0r --enable-libopencv --enable-libx264 --enable-shared\n",
      "  libavutil      55. 78.100 / 55. 78.100\n",
      "  libavcodec     57.107.100 / 57.107.100\n",
      "  libavformat    57. 83.100 / 57. 83.100\n",
      "  libavdevice    57. 10.100 / 57. 10.100\n",
      "  libavfilter     6.107.100 /  6.107.100\n",
      "  libavresample   3.  7.  0 /  3.  7.  0\n",
      "  libswscale      4.  8.100 /  4.  8.100\n",
      "  libswresample   2.  9.100 /  2.  9.100\n",
      "  libpostproc    54.  7.100 / 54.  7.100\n",
      "Input #0, mov,mp4,m4a,3gp,3g2,mj2, from 'input.mp4':\n",
      "  Metadata:\n",
      "    major_brand     : isom\n",
      "    minor_version   : 512\n",
      "    compatible_brands: isomiso2avc1mp41\n",
      "    title           : Networking in the Cloud Fundamentals: Connectivity Issues in EC2\n",
      "    artist          : AWS Morning Brief\n",
      "    encoder         : Lavf58.29.100\n",
      "  Duration: 00:40:08.49, start: 0.000000, bitrate: 341 kb/s\n",
      "    Stream #0:0(und): Video: h264 (Constrained Baseline) (avc1 / 0x31637661), yuv420p(tv, bt709), 640x360 [SAR 1:1 DAR 16:9], 240 kb/s, 25 fps, 25 tbr, 12800 tbn, 50 tbc (default)\n",
      "    Metadata:\n",
      "      handler_name    : ISO Media file produced by Google Inc. Created on: 02/06/2020.\n",
      "    Stream #0:1(eng): Audio: aac (LC) (mp4a / 0x6134706D), 44100 Hz, stereo, fltp, 96 kb/s (default)\n",
      "    Metadata:\n",
      "      handler_name    : ISO Media file produced by Google Inc. Created on: 02/06/2020.\n",
      "Stream mapping:\n",
      "  Stream #0:0 -> #0:0 (h264 (native) -> h264 (libx264))\n",
      "  Stream #0:1 -> #0:1 (copy)\n",
      "Press [q] to stop, [?] for help\n",
      "\u001b[1;36m[libx264 @ 0x559a2db5ea80] \u001b[0musing SAR=1/1\n",
      "\u001b[1;36m[libx264 @ 0x559a2db5ea80] \u001b[0musing cpu capabilities: MMX2 SSE2Fast SSSE3 SSE4.2 AVX FMA3 BMI2 AVX2 AVX512\n",
      "\u001b[1;36m[libx264 @ 0x559a2db5ea80] \u001b[0mprofile High, level 3.0\n",
      "\u001b[1;36m[libx264 @ 0x559a2db5ea80] \u001b[0m264 - core 152 r2854 e9a5903 - H.264/MPEG-4 AVC codec - Copyleft 2003-2017 - http://www.videolan.org/x264.html - options: cabac=1 ref=3 deblock=1:0:0 analyse=0x3:0x113 me=hex subme=7 psy=1 psy_rd=1.00:0.00 mixed_ref=1 me_range=16 chroma_me=1 trellis=1 8x8dct=1 cqm=0 deadzone=21,11 fast_pskip=1 chroma_qp_offset=-2 threads=11 lookahead_threads=1 sliced_threads=0 nr=0 decimate=1 interlaced=0 bluray_compat=0 constrained_intra=0 bframes=3 b_pyramid=2 b_adapt=1 b_bias=0 direct=1 weightb=1 open_gop=0 weightp=2 keyint=250 keyint_min=25 scenecut=40 intra_refresh=0 rc_lookahead=40 rc=abr mbtree=1 bitrate=5000 ratetol=1.0 qcomp=0.60 qpmin=0 qpmax=69 qpstep=4 ip_ratio=1.40 aq=1:1.00\n",
      "Output #0, mp4, to 'output.mp4':\n",
      "  Metadata:\n",
      "    major_brand     : isom\n",
      "    minor_version   : 512\n",
      "    compatible_brands: isomiso2avc1mp41\n",
      "    title           : Networking in the Cloud Fundamentals: Connectivity Issues in EC2\n",
      "    artist          : AWS Morning Brief\n",
      "    encoder         : Lavf57.83.100\n",
      "    Stream #0:0(und): Video: h264 (libx264) (avc1 / 0x31637661), yuv420p, 640x360 [SAR 1:1 DAR 16:9], q=-1--1, 5000 kb/s, 25 fps, 12800 tbn, 25 tbc (default)\n",
      "    Metadata:\n",
      "      handler_name    : ISO Media file produced by Google Inc. Created on: 02/06/2020.\n",
      "      encoder         : Lavc57.107.100 libx264\n",
      "    Side data:\n",
      "      cpb: bitrate max/min/avg: 0/0/5000000 buffer size: 0 vbv_delay: -1\n",
      "    Stream #0:1(eng): Audio: aac (LC) (mp4a / 0x6134706D), 44100 Hz, stereo, fltp, 96 kb/s (default)\n",
      "    Metadata:\n",
      "      handler_name    : ISO Media file produced by Google Inc. Created on: 02/06/2020.\n",
      "frame=60211 fps=334 q=-1.0 Lsize=  542762kB time=00:40:08.46 bitrate=1846.1kbits/s speed=13.4x    \n",
      "video:512590kB audio:28225kB subtitle:0kB other streams:0kB global headers:0kB muxing overhead: 0.360098%\n",
      "\u001b[1;36m[libx264 @ 0x559a2db5ea80] \u001b[0mframe I:241   Avg QP: 0.03  size: 49963\n",
      "\u001b[1;36m[libx264 @ 0x559a2db5ea80] \u001b[0mframe P:18846 Avg QP: 0.05  size: 14580\n",
      "\u001b[1;36m[libx264 @ 0x559a2db5ea80] \u001b[0mframe B:41124 Avg QP: 0.53  size:  5789\n",
      "\u001b[1;36m[libx264 @ 0x559a2db5ea80] \u001b[0mconsecutive B-frames:  4.8%  8.4% 12.0% 74.8%\n",
      "\u001b[1;36m[libx264 @ 0x559a2db5ea80] \u001b[0mmb I  I16..4: 45.2% 10.5% 44.3%\n",
      "\u001b[1;36m[libx264 @ 0x559a2db5ea80] \u001b[0mmb P  I16..4:  1.7%  0.6%  1.7%  P16..4: 12.4%  4.4%  3.6%  0.0%  0.0%    skip:75.7%\n",
      "\u001b[1;36m[libx264 @ 0x559a2db5ea80] \u001b[0mmb B  I16..4:  0.1%  0.0%  0.1%  B16..8:  9.9%  3.2%  2.6%  direct: 3.2%  skip:80.8%  L0:62.1% L1:30.9% BI: 7.0%\n",
      "\u001b[1;36m[libx264 @ 0x559a2db5ea80] \u001b[0mfinal ratefactor: -14.51\n",
      "\u001b[1;36m[libx264 @ 0x559a2db5ea80] \u001b[0m8x8 transform intra:13.4% inter:23.2%\n",
      "\u001b[1;36m[libx264 @ 0x559a2db5ea80] \u001b[0mcoded y,uvDC,uvAC intra: 63.5% 69.7% 66.7% inter: 10.1% 13.0% 10.7%\n",
      "\u001b[1;36m[libx264 @ 0x559a2db5ea80] \u001b[0mi16 v,h,dc,p: 49% 34%  6% 11%\n",
      "\u001b[1;36m[libx264 @ 0x559a2db5ea80] \u001b[0mi8 v,h,dc,ddl,ddr,vr,hd,vl,hu: 14% 35% 24%  2%  5%  4%  7%  1%  7%\n",
      "\u001b[1;36m[libx264 @ 0x559a2db5ea80] \u001b[0mi4 v,h,dc,ddl,ddr,vr,hd,vl,hu: 20% 38% 15%  3%  5%  4%  7%  2%  6%\n",
      "\u001b[1;36m[libx264 @ 0x559a2db5ea80] \u001b[0mi8c dc,h,v,p: 36% 38% 20%  6%\n",
      "\u001b[1;36m[libx264 @ 0x559a2db5ea80] \u001b[0mWeighted P-Frames: Y:0.1% UV:0.0%\n",
      "\u001b[1;36m[libx264 @ 0x559a2db5ea80] \u001b[0mref P L0: 85.3%  6.9%  5.7%  2.1%  0.0%\n",
      "\u001b[1;36m[libx264 @ 0x559a2db5ea80] \u001b[0mref B L0: 95.8%  3.7%  0.5%\n",
      "\u001b[1;36m[libx264 @ 0x559a2db5ea80] \u001b[0mref B L1: 99.6%  0.4%\n",
      "\u001b[1;36m[libx264 @ 0x559a2db5ea80] \u001b[0mkb/s:1743.51\n",
      "947.14user 12.55system 3:03.09elapsed 524%CPU (0avgtext+0avgdata 152480maxresident)k\n",
      "31744inputs+1085592outputs (118major+34402minor)pagefaults 0swaps\n"
     ]
    }
   ],
   "source": [
    "!rm output.mp4\n",
    "!time ffmpeg -i input.mp4 -c:a copy -c:v h264 -b:v 5M output.mp4"
   ]
  },
  {
   "cell_type": "code",
   "execution_count": 6,
   "metadata": {},
   "outputs": [
    {
     "name": "stdout",
     "output_type": "stream",
     "text": [
      "Reading package lists...\n",
      "Building dependency tree...\n",
      "Reading state information...\n",
      "autoconf is already the newest version (2.69-11).\n",
      "automake is already the newest version (1:1.15.1-3ubuntu2).\n",
      "build-essential is already the newest version (12.4ubuntu1).\n",
      "libfreetype6-dev is already the newest version (2.8.1-2ubuntu2).\n",
      "libtool is already the newest version (2.4.6-2).\n",
      "libvdpau-dev is already the newest version (1.1.1-3ubuntu1).\n",
      "libvorbis-dev is already the newest version (1.3.5-4.2).\n",
      "pkg-config is already the newest version (0.29.1-0ubuntu2).\n",
      "zlib1g-dev is already the newest version (1:1.2.11.dfsg-0ubuntu2).\n",
      "libass-dev is already the newest version (1:0.14.0-1).\n",
      "libva-dev is already the newest version (2.1.0-3).\n",
      "texinfo is already the newest version (6.5.0.dfsg.1-2).\n",
      "yasm is already the newest version (1.3.0-2build1).\n",
      "cmake is already the newest version (3.10.2-1ubuntu2.18.04.1).\n",
      "git is already the newest version (1:2.17.1-1ubuntu0.7).\n",
      "libgnutls28-dev is already the newest version (3.5.18-1ubuntu1.4).\n",
      "libxcb-shm0-dev is already the newest version (1.13-2~ubuntu18.04).\n",
      "libxcb-xfixes0-dev is already the newest version (1.13-2~ubuntu18.04).\n",
      "libxcb1-dev is already the newest version (1.13-2~ubuntu18.04).\n",
      "wget is already the newest version (1.19.4-1ubuntu2.2).\n",
      "libsdl2-dev is already the newest version (2.0.8+dfsg1-1ubuntu1.18.04.4).\n",
      "The following packages were automatically installed and are no longer required:\n",
      "  libaio1 librados2 librbd1\n",
      "Use 'sudo apt autoremove' to remove them.\n",
      "0 upgraded, 0 newly installed, 0 to remove and 14 not upgraded.\n",
      "Reading package lists...\n",
      "Building dependency tree...\n",
      "Reading state information...\n",
      "nasm is already the newest version (2.13.02-0.1).\n",
      "The following packages were automatically installed and are no longer required:\n",
      "  libaio1 librados2 librbd1\n",
      "Use 'sudo apt autoremove' to remove them.\n",
      "0 upgraded, 0 newly installed, 0 to remove and 14 not upgraded.\n",
      "Already up to date.\n",
      "platform:       X86_64\n",
      "byte order:     little-endian\n",
      "system:         LINUX\n",
      "cli:            yes\n",
      "libx264:        internal\n",
      "shared:         no\n",
      "static:         yes\n",
      "bashcompletion: no\n",
      "asm:            yes\n",
      "interlaced:     yes\n",
      "avs:            avxsynth\n",
      "lavf:           no\n",
      "ffms:           no\n",
      "mp4:            no\n",
      "gpl:            yes\n",
      "thread:         posix\n",
      "opencl:         yes\n",
      "filters:        resize crop select_every\n",
      "lto:            no\n",
      "debug:          no\n",
      "gprof:          no\n",
      "strip:          no\n",
      "PIC:            yes\n",
      "bit depth:      all\n",
      "chroma format:  all\n",
      "\n",
      "You can run 'make' or 'make fprofiled' now.\n",
      "dependency file generation...\n",
      "gcc -Wno-maybe-uninitialized -Wshadow -O3 -ffast-math -m64  -Wall -I. -I. -std=gnu99 -D_GNU_SOURCE -mpreferred-stack-boundary=6  -I/usr/include/x86_64-linux-gnu -fPIC -fomit-frame-pointer -fno-tree-vectorize -fvisibility=hidden   -c x264.c -o x264.o\n",
      "gcc -Wno-maybe-uninitialized -Wshadow -O3 -ffast-math -m64  -Wall -I. -I. -std=gnu99 -D_GNU_SOURCE -mpreferred-stack-boundary=6  -I/usr/include/x86_64-linux-gnu -fPIC -fomit-frame-pointer -fno-tree-vectorize -fvisibility=hidden   -c autocomplete.c -o autocomplete.o\n",
      "gcc -Wno-maybe-uninitialized -Wshadow -O3 -ffast-math -m64  -Wall -I. -I. -std=gnu99 -D_GNU_SOURCE -mpreferred-stack-boundary=6  -I/usr/include/x86_64-linux-gnu -fPIC -fomit-frame-pointer -fno-tree-vectorize -fvisibility=hidden   -c input/input.c -o input/input.o\n",
      "gcc -Wno-maybe-uninitialized -Wshadow -O3 -ffast-math -m64  -Wall -I. -I. -std=gnu99 -D_GNU_SOURCE -mpreferred-stack-boundary=6  -I/usr/include/x86_64-linux-gnu -fPIC -fomit-frame-pointer -fno-tree-vectorize -fvisibility=hidden   -c input/timecode.c -o input/timecode.o\n",
      "gcc -Wno-maybe-uninitialized -Wshadow -O3 -ffast-math -m64  -Wall -I. -I. -std=gnu99 -D_GNU_SOURCE -mpreferred-stack-boundary=6  -I/usr/include/x86_64-linux-gnu -fPIC -fomit-frame-pointer -fno-tree-vectorize -fvisibility=hidden   -c input/raw.c -o input/raw.o\n",
      "gcc -Wno-maybe-uninitialized -Wshadow -O3 -ffast-math -m64  -Wall -I. -I. -std=gnu99 -D_GNU_SOURCE -mpreferred-stack-boundary=6  -I/usr/include/x86_64-linux-gnu -fPIC -fomit-frame-pointer -fno-tree-vectorize -fvisibility=hidden   -c input/y4m.c -o input/y4m.o\n",
      "gcc -Wno-maybe-uninitialized -Wshadow -O3 -ffast-math -m64  -Wall -I. -I. -std=gnu99 -D_GNU_SOURCE -mpreferred-stack-boundary=6  -I/usr/include/x86_64-linux-gnu -fPIC -fomit-frame-pointer -fno-tree-vectorize -fvisibility=hidden   -c output/raw.c -o output/raw.o\n",
      "gcc -Wno-maybe-uninitialized -Wshadow -O3 -ffast-math -m64  -Wall -I. -I. -std=gnu99 -D_GNU_SOURCE -mpreferred-stack-boundary=6  -I/usr/include/x86_64-linux-gnu -fPIC -fomit-frame-pointer -fno-tree-vectorize -fvisibility=hidden   -c output/matroska.c -o output/matroska.o\n",
      "gcc -Wno-maybe-uninitialized -Wshadow -O3 -ffast-math -m64  -Wall -I. -I. -std=gnu99 -D_GNU_SOURCE -mpreferred-stack-boundary=6  -I/usr/include/x86_64-linux-gnu -fPIC -fomit-frame-pointer -fno-tree-vectorize -fvisibility=hidden   -c output/matroska_ebml.c -o output/matroska_ebml.o\n",
      "gcc -Wno-maybe-uninitialized -Wshadow -O3 -ffast-math -m64  -Wall -I. -I. -std=gnu99 -D_GNU_SOURCE -mpreferred-stack-boundary=6  -I/usr/include/x86_64-linux-gnu -fPIC -fomit-frame-pointer -fno-tree-vectorize -fvisibility=hidden   -c output/flv.c -o output/flv.o\n",
      "gcc -Wno-maybe-uninitialized -Wshadow -O3 -ffast-math -m64  -Wall -I. -I. -std=gnu99 -D_GNU_SOURCE -mpreferred-stack-boundary=6  -I/usr/include/x86_64-linux-gnu -fPIC -fomit-frame-pointer -fno-tree-vectorize -fvisibility=hidden   -c output/flv_bytestream.c -o output/flv_bytestream.o\n",
      "gcc -Wno-maybe-uninitialized -Wshadow -O3 -ffast-math -m64  -Wall -I. -I. -std=gnu99 -D_GNU_SOURCE -mpreferred-stack-boundary=6  -I/usr/include/x86_64-linux-gnu -fPIC -fomit-frame-pointer -fno-tree-vectorize -fvisibility=hidden   -c filters/filters.c -o filters/filters.o\n",
      "gcc -Wno-maybe-uninitialized -Wshadow -O3 -ffast-math -m64  -Wall -I. -I. -std=gnu99 -D_GNU_SOURCE -mpreferred-stack-boundary=6  -I/usr/include/x86_64-linux-gnu -fPIC -fomit-frame-pointer -fno-tree-vectorize -fvisibility=hidden   -c filters/video/video.c -o filters/video/video.o\n",
      "gcc -Wno-maybe-uninitialized -Wshadow -O3 -ffast-math -m64  -Wall -I. -I. -std=gnu99 -D_GNU_SOURCE -mpreferred-stack-boundary=6  -I/usr/include/x86_64-linux-gnu -fPIC -fomit-frame-pointer -fno-tree-vectorize -fvisibility=hidden   -c filters/video/source.c -o filters/video/source.o\n",
      "gcc -Wno-maybe-uninitialized -Wshadow -O3 -ffast-math -m64  -Wall -I. -I. -std=gnu99 -D_GNU_SOURCE -mpreferred-stack-boundary=6  -I/usr/include/x86_64-linux-gnu -fPIC -fomit-frame-pointer -fno-tree-vectorize -fvisibility=hidden   -c filters/video/internal.c -o filters/video/internal.o\n",
      "gcc -Wno-maybe-uninitialized -Wshadow -O3 -ffast-math -m64  -Wall -I. -I. -std=gnu99 -D_GNU_SOURCE -mpreferred-stack-boundary=6  -I/usr/include/x86_64-linux-gnu -fPIC -fomit-frame-pointer -fno-tree-vectorize -fvisibility=hidden   -c filters/video/resize.c -o filters/video/resize.o\n",
      "gcc -Wno-maybe-uninitialized -Wshadow -O3 -ffast-math -m64  -Wall -I. -I. -std=gnu99 -D_GNU_SOURCE -mpreferred-stack-boundary=6  -I/usr/include/x86_64-linux-gnu -fPIC -fomit-frame-pointer -fno-tree-vectorize -fvisibility=hidden   -c filters/video/fix_vfr_pts.c -o filters/video/fix_vfr_pts.o\n",
      "gcc -Wno-maybe-uninitialized -Wshadow -O3 -ffast-math -m64  -Wall -I. -I. -std=gnu99 -D_GNU_SOURCE -mpreferred-stack-boundary=6  -I/usr/include/x86_64-linux-gnu -fPIC -fomit-frame-pointer -fno-tree-vectorize -fvisibility=hidden   -c filters/video/select_every.c -o filters/video/select_every.o\n",
      "gcc -Wno-maybe-uninitialized -Wshadow -O3 -ffast-math -m64  -Wall -I. -I. -std=gnu99 -D_GNU_SOURCE -mpreferred-stack-boundary=6  -I/usr/include/x86_64-linux-gnu -fPIC -fomit-frame-pointer -fno-tree-vectorize -fvisibility=hidden   -c filters/video/crop.c -o filters/video/crop.o\n",
      "gcc -Wno-maybe-uninitialized -Wshadow -O3 -ffast-math -m64  -Wall -I. -I. -std=gnu99 -D_GNU_SOURCE -mpreferred-stack-boundary=6  -I/usr/include/x86_64-linux-gnu -fPIC -fomit-frame-pointer -fno-tree-vectorize -fvisibility=hidden   -c input/avs.c -o input/avs.o\n",
      "gcc -Wno-maybe-uninitialized -Wshadow -O3 -ffast-math -m64  -Wall -I. -I. -std=gnu99 -D_GNU_SOURCE -mpreferred-stack-boundary=6  -I/usr/include/x86_64-linux-gnu -fPIC -fomit-frame-pointer -fno-tree-vectorize -fvisibility=hidden   -c filters/video/cache.c -o filters/video/cache-8.o -DHIGH_BIT_DEPTH=0 -DBIT_DEPTH=8\n",
      "gcc -Wno-maybe-uninitialized -Wshadow -O3 -ffast-math -m64  -Wall -I. -I. -std=gnu99 -D_GNU_SOURCE -mpreferred-stack-boundary=6  -I/usr/include/x86_64-linux-gnu -fPIC -fomit-frame-pointer -fno-tree-vectorize -fvisibility=hidden   -c filters/video/depth.c -o filters/video/depth-8.o -DHIGH_BIT_DEPTH=0 -DBIT_DEPTH=8\n",
      "gcc -Wno-maybe-uninitialized -Wshadow -O3 -ffast-math -m64  -Wall -I. -I. -std=gnu99 -D_GNU_SOURCE -mpreferred-stack-boundary=6  -I/usr/include/x86_64-linux-gnu -fPIC -fomit-frame-pointer -fno-tree-vectorize -fvisibility=hidden   -c input/thread.c -o input/thread-8.o -DHIGH_BIT_DEPTH=0 -DBIT_DEPTH=8\n",
      "gcc -Wno-maybe-uninitialized -Wshadow -O3 -ffast-math -m64  -Wall -I. -I. -std=gnu99 -D_GNU_SOURCE -mpreferred-stack-boundary=6  -I/usr/include/x86_64-linux-gnu -fPIC -fomit-frame-pointer -fno-tree-vectorize -fvisibility=hidden   -c filters/video/cache.c -o filters/video/cache-10.o -DHIGH_BIT_DEPTH=1 -DBIT_DEPTH=10\n",
      "gcc -Wno-maybe-uninitialized -Wshadow -O3 -ffast-math -m64  -Wall -I. -I. -std=gnu99 -D_GNU_SOURCE -mpreferred-stack-boundary=6  -I/usr/include/x86_64-linux-gnu -fPIC -fomit-frame-pointer -fno-tree-vectorize -fvisibility=hidden   -c filters/video/depth.c -o filters/video/depth-10.o -DHIGH_BIT_DEPTH=1 -DBIT_DEPTH=10\n",
      "gcc -Wno-maybe-uninitialized -Wshadow -O3 -ffast-math -m64  -Wall -I. -I. -std=gnu99 -D_GNU_SOURCE -mpreferred-stack-boundary=6  -I/usr/include/x86_64-linux-gnu -fPIC -fomit-frame-pointer -fno-tree-vectorize -fvisibility=hidden   -c input/thread.c -o input/thread-10.o -DHIGH_BIT_DEPTH=1 -DBIT_DEPTH=10\n",
      "gcc -Wno-maybe-uninitialized -Wshadow -O3 -ffast-math -m64  -Wall -I. -I. -std=gnu99 -D_GNU_SOURCE -mpreferred-stack-boundary=6  -I/usr/include/x86_64-linux-gnu -fPIC -fomit-frame-pointer -fno-tree-vectorize -fvisibility=hidden   -c common/osdep.c -o common/osdep.o\n",
      "gcc -Wno-maybe-uninitialized -Wshadow -O3 -ffast-math -m64  -Wall -I. -I. -std=gnu99 -D_GNU_SOURCE -mpreferred-stack-boundary=6  -I/usr/include/x86_64-linux-gnu -fPIC -fomit-frame-pointer -fno-tree-vectorize -fvisibility=hidden   -c common/base.c -o common/base.o\n",
      "gcc -Wno-maybe-uninitialized -Wshadow -O3 -ffast-math -m64  -Wall -I. -I. -std=gnu99 -D_GNU_SOURCE -mpreferred-stack-boundary=6  -I/usr/include/x86_64-linux-gnu -fPIC -fomit-frame-pointer -fno-tree-vectorize -fvisibility=hidden   -c common/cpu.c -o common/cpu.o\n",
      "gcc -Wno-maybe-uninitialized -Wshadow -O3 -ffast-math -m64  -Wall -I. -I. -std=gnu99 -D_GNU_SOURCE -mpreferred-stack-boundary=6  -I/usr/include/x86_64-linux-gnu -fPIC -fomit-frame-pointer -fno-tree-vectorize -fvisibility=hidden   -c common/tables.c -o common/tables.o\n",
      "gcc -Wno-maybe-uninitialized -Wshadow -O3 -ffast-math -m64  -Wall -I. -I. -std=gnu99 -D_GNU_SOURCE -mpreferred-stack-boundary=6  -I/usr/include/x86_64-linux-gnu -fPIC -fomit-frame-pointer -fno-tree-vectorize -fvisibility=hidden   -c encoder/api.c -o encoder/api.o\n",
      "gcc -Wno-maybe-uninitialized -Wshadow -O3 -ffast-math -m64  -Wall -I. -I. -std=gnu99 -D_GNU_SOURCE -mpreferred-stack-boundary=6  -I/usr/include/x86_64-linux-gnu -fPIC -fomit-frame-pointer -fno-tree-vectorize -fvisibility=hidden   -c common/mc.c -o common/mc-8.o -DHIGH_BIT_DEPTH=0 -DBIT_DEPTH=8\n",
      "gcc -Wno-maybe-uninitialized -Wshadow -O3 -ffast-math -m64  -Wall -I. -I. -std=gnu99 -D_GNU_SOURCE -mpreferred-stack-boundary=6  -I/usr/include/x86_64-linux-gnu -fPIC -fomit-frame-pointer -fno-tree-vectorize -fvisibility=hidden   -c common/predict.c -o common/predict-8.o -DHIGH_BIT_DEPTH=0 -DBIT_DEPTH=8\n",
      "gcc -Wno-maybe-uninitialized -Wshadow -O3 -ffast-math -m64  -Wall -I. -I. -std=gnu99 -D_GNU_SOURCE -mpreferred-stack-boundary=6  -I/usr/include/x86_64-linux-gnu -fPIC -fomit-frame-pointer -fno-tree-vectorize -fvisibility=hidden   -c common/pixel.c -o common/pixel-8.o -DHIGH_BIT_DEPTH=0 -DBIT_DEPTH=8\n",
      "gcc -Wno-maybe-uninitialized -Wshadow -O3 -ffast-math -m64  -Wall -I. -I. -std=gnu99 -D_GNU_SOURCE -mpreferred-stack-boundary=6  -I/usr/include/x86_64-linux-gnu -fPIC -fomit-frame-pointer -fno-tree-vectorize -fvisibility=hidden   -c common/macroblock.c -o common/macroblock-8.o -DHIGH_BIT_DEPTH=0 -DBIT_DEPTH=8\n",
      "gcc -Wno-maybe-uninitialized -Wshadow -O3 -ffast-math -m64  -Wall -I. -I. -std=gnu99 -D_GNU_SOURCE -mpreferred-stack-boundary=6  -I/usr/include/x86_64-linux-gnu -fPIC -fomit-frame-pointer -fno-tree-vectorize -fvisibility=hidden   -c common/frame.c -o common/frame-8.o -DHIGH_BIT_DEPTH=0 -DBIT_DEPTH=8\n",
      "gcc -Wno-maybe-uninitialized -Wshadow -O3 -ffast-math -m64  -Wall -I. -I. -std=gnu99 -D_GNU_SOURCE -mpreferred-stack-boundary=6  -I/usr/include/x86_64-linux-gnu -fPIC -fomit-frame-pointer -fno-tree-vectorize -fvisibility=hidden   -c common/dct.c -o common/dct-8.o -DHIGH_BIT_DEPTH=0 -DBIT_DEPTH=8\n",
      "gcc -Wno-maybe-uninitialized -Wshadow -O3 -ffast-math -m64  -Wall -I. -I. -std=gnu99 -D_GNU_SOURCE -mpreferred-stack-boundary=6  -I/usr/include/x86_64-linux-gnu -fPIC -fomit-frame-pointer -fno-tree-vectorize -fvisibility=hidden   -c common/cabac.c -o common/cabac-8.o -DHIGH_BIT_DEPTH=0 -DBIT_DEPTH=8\n",
      "gcc -Wno-maybe-uninitialized -Wshadow -O3 -ffast-math -m64  -Wall -I. -I. -std=gnu99 -D_GNU_SOURCE -mpreferred-stack-boundary=6  -I/usr/include/x86_64-linux-gnu -fPIC -fomit-frame-pointer -fno-tree-vectorize -fvisibility=hidden   -c common/common.c -o common/common-8.o -DHIGH_BIT_DEPTH=0 -DBIT_DEPTH=8\n",
      "gcc -Wno-maybe-uninitialized -Wshadow -O3 -ffast-math -m64  -Wall -I. -I. -std=gnu99 -D_GNU_SOURCE -mpreferred-stack-boundary=6  -I/usr/include/x86_64-linux-gnu -fPIC -fomit-frame-pointer -fno-tree-vectorize -fvisibility=hidden   -c common/rectangle.c -o common/rectangle-8.o -DHIGH_BIT_DEPTH=0 -DBIT_DEPTH=8\n",
      "gcc -Wno-maybe-uninitialized -Wshadow -O3 -ffast-math -m64  -Wall -I. -I. -std=gnu99 -D_GNU_SOURCE -mpreferred-stack-boundary=6  -I/usr/include/x86_64-linux-gnu -fPIC -fomit-frame-pointer -fno-tree-vectorize -fvisibility=hidden   -c common/set.c -o common/set-8.o -DHIGH_BIT_DEPTH=0 -DBIT_DEPTH=8\n",
      "gcc -Wno-maybe-uninitialized -Wshadow -O3 -ffast-math -m64  -Wall -I. -I. -std=gnu99 -D_GNU_SOURCE -mpreferred-stack-boundary=6  -I/usr/include/x86_64-linux-gnu -fPIC -fomit-frame-pointer -fno-tree-vectorize -fvisibility=hidden   -c common/quant.c -o common/quant-8.o -DHIGH_BIT_DEPTH=0 -DBIT_DEPTH=8\n",
      "gcc -Wno-maybe-uninitialized -Wshadow -O3 -ffast-math -m64  -Wall -I. -I. -std=gnu99 -D_GNU_SOURCE -mpreferred-stack-boundary=6  -I/usr/include/x86_64-linux-gnu -fPIC -fomit-frame-pointer -fno-tree-vectorize -fvisibility=hidden   -c common/deblock.c -o common/deblock-8.o -DHIGH_BIT_DEPTH=0 -DBIT_DEPTH=8\n",
      "gcc -Wno-maybe-uninitialized -Wshadow -O3 -ffast-math -m64  -Wall -I. -I. -std=gnu99 -D_GNU_SOURCE -mpreferred-stack-boundary=6  -I/usr/include/x86_64-linux-gnu -fPIC -fomit-frame-pointer -fno-tree-vectorize -fvisibility=hidden   -c common/vlc.c -o common/vlc-8.o -DHIGH_BIT_DEPTH=0 -DBIT_DEPTH=8\n",
      "gcc -Wno-maybe-uninitialized -Wshadow -O3 -ffast-math -m64  -Wall -I. -I. -std=gnu99 -D_GNU_SOURCE -mpreferred-stack-boundary=6  -I/usr/include/x86_64-linux-gnu -fPIC -fomit-frame-pointer -fno-tree-vectorize -fvisibility=hidden   -c common/mvpred.c -o common/mvpred-8.o -DHIGH_BIT_DEPTH=0 -DBIT_DEPTH=8\n",
      "gcc -Wno-maybe-uninitialized -Wshadow -O3 -ffast-math -m64  -Wall -I. -I. -std=gnu99 -D_GNU_SOURCE -mpreferred-stack-boundary=6  -I/usr/include/x86_64-linux-gnu -fPIC -fomit-frame-pointer -fno-tree-vectorize -fvisibility=hidden   -c common/bitstream.c -o common/bitstream-8.o -DHIGH_BIT_DEPTH=0 -DBIT_DEPTH=8\n",
      "gcc -Wno-maybe-uninitialized -Wshadow -O3 -ffast-math -m64  -Wall -I. -I. -std=gnu99 -D_GNU_SOURCE -mpreferred-stack-boundary=6  -I/usr/include/x86_64-linux-gnu -fPIC -fomit-frame-pointer -fno-tree-vectorize -fvisibility=hidden   -c encoder/analyse.c -o encoder/analyse-8.o -DHIGH_BIT_DEPTH=0 -DBIT_DEPTH=8\n",
      "gcc -Wno-maybe-uninitialized -Wshadow -O3 -ffast-math -m64  -Wall -I. -I. -std=gnu99 -D_GNU_SOURCE -mpreferred-stack-boundary=6  -I/usr/include/x86_64-linux-gnu -fPIC -fomit-frame-pointer -fno-tree-vectorize -fvisibility=hidden   -c encoder/me.c -o encoder/me-8.o -DHIGH_BIT_DEPTH=0 -DBIT_DEPTH=8\n",
      "gcc -Wno-maybe-uninitialized -Wshadow -O3 -ffast-math -m64  -Wall -I. -I. -std=gnu99 -D_GNU_SOURCE -mpreferred-stack-boundary=6  -I/usr/include/x86_64-linux-gnu -fPIC -fomit-frame-pointer -fno-tree-vectorize -fvisibility=hidden   -c encoder/ratecontrol.c -o encoder/ratecontrol-8.o -DHIGH_BIT_DEPTH=0 -DBIT_DEPTH=8\n",
      "gcc -Wno-maybe-uninitialized -Wshadow -O3 -ffast-math -m64  -Wall -I. -I. -std=gnu99 -D_GNU_SOURCE -mpreferred-stack-boundary=6  -I/usr/include/x86_64-linux-gnu -fPIC -fomit-frame-pointer -fno-tree-vectorize -fvisibility=hidden   -c encoder/set.c -o encoder/set-8.o -DHIGH_BIT_DEPTH=0 -DBIT_DEPTH=8\n",
      "gcc -Wno-maybe-uninitialized -Wshadow -O3 -ffast-math -m64  -Wall -I. -I. -std=gnu99 -D_GNU_SOURCE -mpreferred-stack-boundary=6  -I/usr/include/x86_64-linux-gnu -fPIC -fomit-frame-pointer -fno-tree-vectorize -fvisibility=hidden   -c encoder/macroblock.c -o encoder/macroblock-8.o -DHIGH_BIT_DEPTH=0 -DBIT_DEPTH=8\n",
      "gcc -Wno-maybe-uninitialized -Wshadow -O3 -ffast-math -m64  -Wall -I. -I. -std=gnu99 -D_GNU_SOURCE -mpreferred-stack-boundary=6  -I/usr/include/x86_64-linux-gnu -fPIC -fomit-frame-pointer -fno-tree-vectorize -fvisibility=hidden   -c encoder/cabac.c -o encoder/cabac-8.o -DHIGH_BIT_DEPTH=0 -DBIT_DEPTH=8\n",
      "gcc -Wno-maybe-uninitialized -Wshadow -O3 -ffast-math -m64  -Wall -I. -I. -std=gnu99 -D_GNU_SOURCE -mpreferred-stack-boundary=6  -I/usr/include/x86_64-linux-gnu -fPIC -fomit-frame-pointer -fno-tree-vectorize -fvisibility=hidden   -c encoder/cavlc.c -o encoder/cavlc-8.o -DHIGH_BIT_DEPTH=0 -DBIT_DEPTH=8\n",
      "gcc -Wno-maybe-uninitialized -Wshadow -O3 -ffast-math -m64  -Wall -I. -I. -std=gnu99 -D_GNU_SOURCE -mpreferred-stack-boundary=6  -I/usr/include/x86_64-linux-gnu -fPIC -fomit-frame-pointer -fno-tree-vectorize -fvisibility=hidden   -c encoder/encoder.c -o encoder/encoder-8.o -DHIGH_BIT_DEPTH=0 -DBIT_DEPTH=8\n",
      "gcc -Wno-maybe-uninitialized -Wshadow -O3 -ffast-math -m64  -Wall -I. -I. -std=gnu99 -D_GNU_SOURCE -mpreferred-stack-boundary=6  -I/usr/include/x86_64-linux-gnu -fPIC -fomit-frame-pointer -fno-tree-vectorize -fvisibility=hidden   -c encoder/lookahead.c -o encoder/lookahead-8.o -DHIGH_BIT_DEPTH=0 -DBIT_DEPTH=8\n",
      "gcc -Wno-maybe-uninitialized -Wshadow -O3 -ffast-math -m64  -Wall -I. -I. -std=gnu99 -D_GNU_SOURCE -mpreferred-stack-boundary=6  -I/usr/include/x86_64-linux-gnu -fPIC -fomit-frame-pointer -fno-tree-vectorize -fvisibility=hidden   -c common/threadpool.c -o common/threadpool-8.o -DHIGH_BIT_DEPTH=0 -DBIT_DEPTH=8\n",
      "gcc -Wno-maybe-uninitialized -Wshadow -O3 -ffast-math -m64  -Wall -I. -I. -std=gnu99 -D_GNU_SOURCE -mpreferred-stack-boundary=6  -I/usr/include/x86_64-linux-gnu -fPIC -fomit-frame-pointer -fno-tree-vectorize -fvisibility=hidden   -c common/x86/mc-c.c -o common/x86/mc-c-8.o -DHIGH_BIT_DEPTH=0 -DBIT_DEPTH=8\n",
      "gcc -Wno-maybe-uninitialized -Wshadow -O3 -ffast-math -m64  -Wall -I. -I. -std=gnu99 -D_GNU_SOURCE -mpreferred-stack-boundary=6  -I/usr/include/x86_64-linux-gnu -fPIC -fomit-frame-pointer -fno-tree-vectorize -fvisibility=hidden   -c common/x86/predict-c.c -o common/x86/predict-c-8.o -DHIGH_BIT_DEPTH=0 -DBIT_DEPTH=8\n",
      "gcc -Wno-maybe-uninitialized -Wshadow -O3 -ffast-math -m64  -Wall -I. -I. -std=gnu99 -D_GNU_SOURCE -mpreferred-stack-boundary=6  -I/usr/include/x86_64-linux-gnu -fPIC -fomit-frame-pointer -fno-tree-vectorize -fvisibility=hidden   -c common/opencl.c -o common/opencl-8.o -DHIGH_BIT_DEPTH=0 -DBIT_DEPTH=8\n",
      "gcc -Wno-maybe-uninitialized -Wshadow -O3 -ffast-math -m64  -Wall -I. -I. -std=gnu99 -D_GNU_SOURCE -mpreferred-stack-boundary=6  -I/usr/include/x86_64-linux-gnu -fPIC -fomit-frame-pointer -fno-tree-vectorize -fvisibility=hidden   -c encoder/slicetype-cl.c -o encoder/slicetype-cl-8.o -DHIGH_BIT_DEPTH=0 -DBIT_DEPTH=8\n",
      "gcc -Wno-maybe-uninitialized -Wshadow -O3 -ffast-math -m64  -Wall -I. -I. -std=gnu99 -D_GNU_SOURCE -mpreferred-stack-boundary=6  -I/usr/include/x86_64-linux-gnu -fPIC -fomit-frame-pointer -fno-tree-vectorize -fvisibility=hidden   -c common/mc.c -o common/mc-10.o -DHIGH_BIT_DEPTH=1 -DBIT_DEPTH=10\n",
      "gcc -Wno-maybe-uninitialized -Wshadow -O3 -ffast-math -m64  -Wall -I. -I. -std=gnu99 -D_GNU_SOURCE -mpreferred-stack-boundary=6  -I/usr/include/x86_64-linux-gnu -fPIC -fomit-frame-pointer -fno-tree-vectorize -fvisibility=hidden   -c common/predict.c -o common/predict-10.o -DHIGH_BIT_DEPTH=1 -DBIT_DEPTH=10\n",
      "gcc -Wno-maybe-uninitialized -Wshadow -O3 -ffast-math -m64  -Wall -I. -I. -std=gnu99 -D_GNU_SOURCE -mpreferred-stack-boundary=6  -I/usr/include/x86_64-linux-gnu -fPIC -fomit-frame-pointer -fno-tree-vectorize -fvisibility=hidden   -c common/pixel.c -o common/pixel-10.o -DHIGH_BIT_DEPTH=1 -DBIT_DEPTH=10\n",
      "gcc -Wno-maybe-uninitialized -Wshadow -O3 -ffast-math -m64  -Wall -I. -I. -std=gnu99 -D_GNU_SOURCE -mpreferred-stack-boundary=6  -I/usr/include/x86_64-linux-gnu -fPIC -fomit-frame-pointer -fno-tree-vectorize -fvisibility=hidden   -c common/macroblock.c -o common/macroblock-10.o -DHIGH_BIT_DEPTH=1 -DBIT_DEPTH=10\n",
      "gcc -Wno-maybe-uninitialized -Wshadow -O3 -ffast-math -m64  -Wall -I. -I. -std=gnu99 -D_GNU_SOURCE -mpreferred-stack-boundary=6  -I/usr/include/x86_64-linux-gnu -fPIC -fomit-frame-pointer -fno-tree-vectorize -fvisibility=hidden   -c common/frame.c -o common/frame-10.o -DHIGH_BIT_DEPTH=1 -DBIT_DEPTH=10\n",
      "gcc -Wno-maybe-uninitialized -Wshadow -O3 -ffast-math -m64  -Wall -I. -I. -std=gnu99 -D_GNU_SOURCE -mpreferred-stack-boundary=6  -I/usr/include/x86_64-linux-gnu -fPIC -fomit-frame-pointer -fno-tree-vectorize -fvisibility=hidden   -c common/dct.c -o common/dct-10.o -DHIGH_BIT_DEPTH=1 -DBIT_DEPTH=10\n",
      "gcc -Wno-maybe-uninitialized -Wshadow -O3 -ffast-math -m64  -Wall -I. -I. -std=gnu99 -D_GNU_SOURCE -mpreferred-stack-boundary=6  -I/usr/include/x86_64-linux-gnu -fPIC -fomit-frame-pointer -fno-tree-vectorize -fvisibility=hidden   -c common/cabac.c -o common/cabac-10.o -DHIGH_BIT_DEPTH=1 -DBIT_DEPTH=10\n",
      "gcc -Wno-maybe-uninitialized -Wshadow -O3 -ffast-math -m64  -Wall -I. -I. -std=gnu99 -D_GNU_SOURCE -mpreferred-stack-boundary=6  -I/usr/include/x86_64-linux-gnu -fPIC -fomit-frame-pointer -fno-tree-vectorize -fvisibility=hidden   -c common/common.c -o common/common-10.o -DHIGH_BIT_DEPTH=1 -DBIT_DEPTH=10\n",
      "gcc -Wno-maybe-uninitialized -Wshadow -O3 -ffast-math -m64  -Wall -I. -I. -std=gnu99 -D_GNU_SOURCE -mpreferred-stack-boundary=6  -I/usr/include/x86_64-linux-gnu -fPIC -fomit-frame-pointer -fno-tree-vectorize -fvisibility=hidden   -c common/rectangle.c -o common/rectangle-10.o -DHIGH_BIT_DEPTH=1 -DBIT_DEPTH=10\n",
      "gcc -Wno-maybe-uninitialized -Wshadow -O3 -ffast-math -m64  -Wall -I. -I. -std=gnu99 -D_GNU_SOURCE -mpreferred-stack-boundary=6  -I/usr/include/x86_64-linux-gnu -fPIC -fomit-frame-pointer -fno-tree-vectorize -fvisibility=hidden   -c common/set.c -o common/set-10.o -DHIGH_BIT_DEPTH=1 -DBIT_DEPTH=10\n",
      "gcc -Wno-maybe-uninitialized -Wshadow -O3 -ffast-math -m64  -Wall -I. -I. -std=gnu99 -D_GNU_SOURCE -mpreferred-stack-boundary=6  -I/usr/include/x86_64-linux-gnu -fPIC -fomit-frame-pointer -fno-tree-vectorize -fvisibility=hidden   -c common/quant.c -o common/quant-10.o -DHIGH_BIT_DEPTH=1 -DBIT_DEPTH=10\n",
      "gcc -Wno-maybe-uninitialized -Wshadow -O3 -ffast-math -m64  -Wall -I. -I. -std=gnu99 -D_GNU_SOURCE -mpreferred-stack-boundary=6  -I/usr/include/x86_64-linux-gnu -fPIC -fomit-frame-pointer -fno-tree-vectorize -fvisibility=hidden   -c common/deblock.c -o common/deblock-10.o -DHIGH_BIT_DEPTH=1 -DBIT_DEPTH=10\n",
      "gcc -Wno-maybe-uninitialized -Wshadow -O3 -ffast-math -m64  -Wall -I. -I. -std=gnu99 -D_GNU_SOURCE -mpreferred-stack-boundary=6  -I/usr/include/x86_64-linux-gnu -fPIC -fomit-frame-pointer -fno-tree-vectorize -fvisibility=hidden   -c common/vlc.c -o common/vlc-10.o -DHIGH_BIT_DEPTH=1 -DBIT_DEPTH=10\n",
      "gcc -Wno-maybe-uninitialized -Wshadow -O3 -ffast-math -m64  -Wall -I. -I. -std=gnu99 -D_GNU_SOURCE -mpreferred-stack-boundary=6  -I/usr/include/x86_64-linux-gnu -fPIC -fomit-frame-pointer -fno-tree-vectorize -fvisibility=hidden   -c common/mvpred.c -o common/mvpred-10.o -DHIGH_BIT_DEPTH=1 -DBIT_DEPTH=10\n",
      "gcc -Wno-maybe-uninitialized -Wshadow -O3 -ffast-math -m64  -Wall -I. -I. -std=gnu99 -D_GNU_SOURCE -mpreferred-stack-boundary=6  -I/usr/include/x86_64-linux-gnu -fPIC -fomit-frame-pointer -fno-tree-vectorize -fvisibility=hidden   -c common/bitstream.c -o common/bitstream-10.o -DHIGH_BIT_DEPTH=1 -DBIT_DEPTH=10\n",
      "gcc -Wno-maybe-uninitialized -Wshadow -O3 -ffast-math -m64  -Wall -I. -I. -std=gnu99 -D_GNU_SOURCE -mpreferred-stack-boundary=6  -I/usr/include/x86_64-linux-gnu -fPIC -fomit-frame-pointer -fno-tree-vectorize -fvisibility=hidden   -c encoder/analyse.c -o encoder/analyse-10.o -DHIGH_BIT_DEPTH=1 -DBIT_DEPTH=10\n",
      "gcc -Wno-maybe-uninitialized -Wshadow -O3 -ffast-math -m64  -Wall -I. -I. -std=gnu99 -D_GNU_SOURCE -mpreferred-stack-boundary=6  -I/usr/include/x86_64-linux-gnu -fPIC -fomit-frame-pointer -fno-tree-vectorize -fvisibility=hidden   -c encoder/me.c -o encoder/me-10.o -DHIGH_BIT_DEPTH=1 -DBIT_DEPTH=10\n",
      "gcc -Wno-maybe-uninitialized -Wshadow -O3 -ffast-math -m64  -Wall -I. -I. -std=gnu99 -D_GNU_SOURCE -mpreferred-stack-boundary=6  -I/usr/include/x86_64-linux-gnu -fPIC -fomit-frame-pointer -fno-tree-vectorize -fvisibility=hidden   -c encoder/ratecontrol.c -o encoder/ratecontrol-10.o -DHIGH_BIT_DEPTH=1 -DBIT_DEPTH=10\n",
      "gcc -Wno-maybe-uninitialized -Wshadow -O3 -ffast-math -m64  -Wall -I. -I. -std=gnu99 -D_GNU_SOURCE -mpreferred-stack-boundary=6  -I/usr/include/x86_64-linux-gnu -fPIC -fomit-frame-pointer -fno-tree-vectorize -fvisibility=hidden   -c encoder/set.c -o encoder/set-10.o -DHIGH_BIT_DEPTH=1 -DBIT_DEPTH=10\n",
      "gcc -Wno-maybe-uninitialized -Wshadow -O3 -ffast-math -m64  -Wall -I. -I. -std=gnu99 -D_GNU_SOURCE -mpreferred-stack-boundary=6  -I/usr/include/x86_64-linux-gnu -fPIC -fomit-frame-pointer -fno-tree-vectorize -fvisibility=hidden   -c encoder/macroblock.c -o encoder/macroblock-10.o -DHIGH_BIT_DEPTH=1 -DBIT_DEPTH=10\n",
      "gcc -Wno-maybe-uninitialized -Wshadow -O3 -ffast-math -m64  -Wall -I. -I. -std=gnu99 -D_GNU_SOURCE -mpreferred-stack-boundary=6  -I/usr/include/x86_64-linux-gnu -fPIC -fomit-frame-pointer -fno-tree-vectorize -fvisibility=hidden   -c encoder/cabac.c -o encoder/cabac-10.o -DHIGH_BIT_DEPTH=1 -DBIT_DEPTH=10\n",
      "gcc -Wno-maybe-uninitialized -Wshadow -O3 -ffast-math -m64  -Wall -I. -I. -std=gnu99 -D_GNU_SOURCE -mpreferred-stack-boundary=6  -I/usr/include/x86_64-linux-gnu -fPIC -fomit-frame-pointer -fno-tree-vectorize -fvisibility=hidden   -c encoder/cavlc.c -o encoder/cavlc-10.o -DHIGH_BIT_DEPTH=1 -DBIT_DEPTH=10\n",
      "gcc -Wno-maybe-uninitialized -Wshadow -O3 -ffast-math -m64  -Wall -I. -I. -std=gnu99 -D_GNU_SOURCE -mpreferred-stack-boundary=6  -I/usr/include/x86_64-linux-gnu -fPIC -fomit-frame-pointer -fno-tree-vectorize -fvisibility=hidden   -c encoder/encoder.c -o encoder/encoder-10.o -DHIGH_BIT_DEPTH=1 -DBIT_DEPTH=10\n",
      "gcc -Wno-maybe-uninitialized -Wshadow -O3 -ffast-math -m64  -Wall -I. -I. -std=gnu99 -D_GNU_SOURCE -mpreferred-stack-boundary=6  -I/usr/include/x86_64-linux-gnu -fPIC -fomit-frame-pointer -fno-tree-vectorize -fvisibility=hidden   -c encoder/lookahead.c -o encoder/lookahead-10.o -DHIGH_BIT_DEPTH=1 -DBIT_DEPTH=10\n",
      "gcc -Wno-maybe-uninitialized -Wshadow -O3 -ffast-math -m64  -Wall -I. -I. -std=gnu99 -D_GNU_SOURCE -mpreferred-stack-boundary=6  -I/usr/include/x86_64-linux-gnu -fPIC -fomit-frame-pointer -fno-tree-vectorize -fvisibility=hidden   -c common/threadpool.c -o common/threadpool-10.o -DHIGH_BIT_DEPTH=1 -DBIT_DEPTH=10\n",
      "gcc -Wno-maybe-uninitialized -Wshadow -O3 -ffast-math -m64  -Wall -I. -I. -std=gnu99 -D_GNU_SOURCE -mpreferred-stack-boundary=6  -I/usr/include/x86_64-linux-gnu -fPIC -fomit-frame-pointer -fno-tree-vectorize -fvisibility=hidden   -c common/x86/mc-c.c -o common/x86/mc-c-10.o -DHIGH_BIT_DEPTH=1 -DBIT_DEPTH=10\n",
      "gcc -Wno-maybe-uninitialized -Wshadow -O3 -ffast-math -m64  -Wall -I. -I. -std=gnu99 -D_GNU_SOURCE -mpreferred-stack-boundary=6  -I/usr/include/x86_64-linux-gnu -fPIC -fomit-frame-pointer -fno-tree-vectorize -fvisibility=hidden   -c common/x86/predict-c.c -o common/x86/predict-c-10.o -DHIGH_BIT_DEPTH=1 -DBIT_DEPTH=10\n",
      "nasm -I. -I. -DARCH_X86_64=1 -I./common/x86/ -f elf64 -DSTACK_ALIGNMENT=64 -DPIC -o common/x86/cpu-a.o common/x86/cpu-a.asm\n",
      "nasm -I. -I. -DARCH_X86_64=1 -I./common/x86/ -f elf64 -DSTACK_ALIGNMENT=64 -DPIC -o common/x86/dct-64-8.o common/x86/dct-64.asm -DBIT_DEPTH=8 -Dprivate_prefix=x264_8\n",
      "nasm -I. -I. -DARCH_X86_64=1 -I./common/x86/ -f elf64 -DSTACK_ALIGNMENT=64 -DPIC -o common/x86/trellis-64-8.o common/x86/trellis-64.asm -DBIT_DEPTH=8 -Dprivate_prefix=x264_8\n",
      "nasm -I. -I. -DARCH_X86_64=1 -I./common/x86/ -f elf64 -DSTACK_ALIGNMENT=64 -DPIC -o common/x86/bitstream-a-8.o common/x86/bitstream-a.asm -DBIT_DEPTH=8 -Dprivate_prefix=x264_8\n",
      "nasm -I. -I. -DARCH_X86_64=1 -I./common/x86/ -f elf64 -DSTACK_ALIGNMENT=64 -DPIC -o common/x86/const-a-8.o common/x86/const-a.asm -DBIT_DEPTH=8 -Dprivate_prefix=x264_8\n",
      "nasm -I. -I. -DARCH_X86_64=1 -I./common/x86/ -f elf64 -DSTACK_ALIGNMENT=64 -DPIC -o common/x86/cabac-a-8.o common/x86/cabac-a.asm -DBIT_DEPTH=8 -Dprivate_prefix=x264_8\n",
      "nasm -I. -I. -DARCH_X86_64=1 -I./common/x86/ -f elf64 -DSTACK_ALIGNMENT=64 -DPIC -o common/x86/dct-a-8.o common/x86/dct-a.asm -DBIT_DEPTH=8 -Dprivate_prefix=x264_8\n",
      "nasm -I. -I. -DARCH_X86_64=1 -I./common/x86/ -f elf64 -DSTACK_ALIGNMENT=64 -DPIC -o common/x86/deblock-a-8.o common/x86/deblock-a.asm -DBIT_DEPTH=8 -Dprivate_prefix=x264_8\n",
      "nasm -I. -I. -DARCH_X86_64=1 -I./common/x86/ -f elf64 -DSTACK_ALIGNMENT=64 -DPIC -o common/x86/mc-a-8.o common/x86/mc-a.asm -DBIT_DEPTH=8 -Dprivate_prefix=x264_8\n",
      "nasm -I. -I. -DARCH_X86_64=1 -I./common/x86/ -f elf64 -DSTACK_ALIGNMENT=64 -DPIC -o common/x86/mc-a2-8.o common/x86/mc-a2.asm -DBIT_DEPTH=8 -Dprivate_prefix=x264_8\n",
      "nasm -I. -I. -DARCH_X86_64=1 -I./common/x86/ -f elf64 -DSTACK_ALIGNMENT=64 -DPIC -o common/x86/pixel-a-8.o common/x86/pixel-a.asm -DBIT_DEPTH=8 -Dprivate_prefix=x264_8\n",
      "nasm -I. -I. -DARCH_X86_64=1 -I./common/x86/ -f elf64 -DSTACK_ALIGNMENT=64 -DPIC -o common/x86/predict-a-8.o common/x86/predict-a.asm -DBIT_DEPTH=8 -Dprivate_prefix=x264_8\n",
      "nasm -I. -I. -DARCH_X86_64=1 -I./common/x86/ -f elf64 -DSTACK_ALIGNMENT=64 -DPIC -o common/x86/quant-a-8.o common/x86/quant-a.asm -DBIT_DEPTH=8 -Dprivate_prefix=x264_8\n",
      "nasm -I. -I. -DARCH_X86_64=1 -I./common/x86/ -f elf64 -DSTACK_ALIGNMENT=64 -DPIC -o common/x86/sad-a-8.o common/x86/sad-a.asm -DBIT_DEPTH=8 -Dprivate_prefix=x264_8\n",
      "nasm -I. -I. -DARCH_X86_64=1 -I./common/x86/ -f elf64 -DSTACK_ALIGNMENT=64 -DPIC -o common/x86/dct-64-10.o common/x86/dct-64.asm -DBIT_DEPTH=10 -Dprivate_prefix=x264_10\n",
      "nasm -I. -I. -DARCH_X86_64=1 -I./common/x86/ -f elf64 -DSTACK_ALIGNMENT=64 -DPIC -o common/x86/trellis-64-10.o common/x86/trellis-64.asm -DBIT_DEPTH=10 -Dprivate_prefix=x264_10\n",
      "nasm -I. -I. -DARCH_X86_64=1 -I./common/x86/ -f elf64 -DSTACK_ALIGNMENT=64 -DPIC -o common/x86/bitstream-a-10.o common/x86/bitstream-a.asm -DBIT_DEPTH=10 -Dprivate_prefix=x264_10\n",
      "nasm -I. -I. -DARCH_X86_64=1 -I./common/x86/ -f elf64 -DSTACK_ALIGNMENT=64 -DPIC -o common/x86/const-a-10.o common/x86/const-a.asm -DBIT_DEPTH=10 -Dprivate_prefix=x264_10\n",
      "nasm -I. -I. -DARCH_X86_64=1 -I./common/x86/ -f elf64 -DSTACK_ALIGNMENT=64 -DPIC -o common/x86/cabac-a-10.o common/x86/cabac-a.asm -DBIT_DEPTH=10 -Dprivate_prefix=x264_10\n",
      "nasm -I. -I. -DARCH_X86_64=1 -I./common/x86/ -f elf64 -DSTACK_ALIGNMENT=64 -DPIC -o common/x86/dct-a-10.o common/x86/dct-a.asm -DBIT_DEPTH=10 -Dprivate_prefix=x264_10\n",
      "nasm -I. -I. -DARCH_X86_64=1 -I./common/x86/ -f elf64 -DSTACK_ALIGNMENT=64 -DPIC -o common/x86/deblock-a-10.o common/x86/deblock-a.asm -DBIT_DEPTH=10 -Dprivate_prefix=x264_10\n",
      "nasm -I. -I. -DARCH_X86_64=1 -I./common/x86/ -f elf64 -DSTACK_ALIGNMENT=64 -DPIC -o common/x86/mc-a-10.o common/x86/mc-a.asm -DBIT_DEPTH=10 -Dprivate_prefix=x264_10\n",
      "nasm -I. -I. -DARCH_X86_64=1 -I./common/x86/ -f elf64 -DSTACK_ALIGNMENT=64 -DPIC -o common/x86/mc-a2-10.o common/x86/mc-a2.asm -DBIT_DEPTH=10 -Dprivate_prefix=x264_10\n",
      "nasm -I. -I. -DARCH_X86_64=1 -I./common/x86/ -f elf64 -DSTACK_ALIGNMENT=64 -DPIC -o common/x86/pixel-a-10.o common/x86/pixel-a.asm -DBIT_DEPTH=10 -Dprivate_prefix=x264_10\n",
      "nasm -I. -I. -DARCH_X86_64=1 -I./common/x86/ -f elf64 -DSTACK_ALIGNMENT=64 -DPIC -o common/x86/predict-a-10.o common/x86/predict-a.asm -DBIT_DEPTH=10 -Dprivate_prefix=x264_10\n",
      "nasm -I. -I. -DARCH_X86_64=1 -I./common/x86/ -f elf64 -DSTACK_ALIGNMENT=64 -DPIC -o common/x86/quant-a-10.o common/x86/quant-a.asm -DBIT_DEPTH=10 -Dprivate_prefix=x264_10\n",
      "nasm -I. -I. -DARCH_X86_64=1 -I./common/x86/ -f elf64 -DSTACK_ALIGNMENT=64 -DPIC -o common/x86/sad16-a-10.o common/x86/sad16-a.asm -DBIT_DEPTH=10 -Dprivate_prefix=x264_10\n",
      "rm -f libx264.a\n",
      "gcc-ar rc libx264.a  common/osdep.o common/base.o common/cpu.o common/tables.o encoder/api.o common/mc-8.o common/predict-8.o common/pixel-8.o common/macroblock-8.o common/frame-8.o common/dct-8.o common/cabac-8.o common/common-8.o common/rectangle-8.o common/set-8.o common/quant-8.o common/deblock-8.o common/vlc-8.o common/mvpred-8.o common/bitstream-8.o encoder/analyse-8.o encoder/me-8.o encoder/ratecontrol-8.o encoder/set-8.o encoder/macroblock-8.o encoder/cabac-8.o encoder/cavlc-8.o encoder/encoder-8.o encoder/lookahead-8.o common/threadpool-8.o common/x86/mc-c-8.o common/x86/predict-c-8.o common/opencl-8.o encoder/slicetype-cl-8.o common/mc-10.o common/predict-10.o common/pixel-10.o common/macroblock-10.o common/frame-10.o common/dct-10.o common/cabac-10.o common/common-10.o common/rectangle-10.o common/set-10.o common/quant-10.o common/deblock-10.o common/vlc-10.o common/mvpred-10.o common/bitstream-10.o encoder/analyse-10.o encoder/me-10.o encoder/ratecontrol-10.o encoder/set-10.o encoder/macroblock-10.o encoder/cabac-10.o encoder/cavlc-10.o encoder/encoder-10.o encoder/lookahead-10.o common/threadpool-10.o common/x86/mc-c-10.o common/x86/predict-c-10.o  common/x86/cpu-a.o common/x86/dct-64-8.o common/x86/trellis-64-8.o common/x86/bitstream-a-8.o common/x86/const-a-8.o common/x86/cabac-a-8.o common/x86/dct-a-8.o common/x86/deblock-a-8.o common/x86/mc-a-8.o common/x86/mc-a2-8.o common/x86/pixel-a-8.o common/x86/predict-a-8.o common/x86/quant-a-8.o common/x86/sad-a-8.o common/x86/dct-64-10.o common/x86/trellis-64-10.o common/x86/bitstream-a-10.o common/x86/const-a-10.o common/x86/cabac-a-10.o common/x86/dct-a-10.o common/x86/deblock-a-10.o common/x86/mc-a-10.o common/x86/mc-a2-10.o common/x86/pixel-a-10.o common/x86/predict-a-10.o common/x86/quant-a-10.o common/x86/sad16-a-10.o\n",
      "gcc-ranlib libx264.a\n",
      "gcc -o x264  x264.o autocomplete.o input/input.o input/timecode.o input/raw.o input/y4m.o output/raw.o output/matroska.o output/matroska_ebml.o output/flv.o output/flv_bytestream.o filters/filters.o filters/video/video.o filters/video/source.o filters/video/internal.o filters/video/resize.o filters/video/fix_vfr_pts.o filters/video/select_every.o filters/video/crop.o input/avs.o filters/video/cache-8.o filters/video/depth-8.o input/thread-8.o filters/video/cache-10.o filters/video/depth-10.o input/thread-10.o libx264.a -ldl  -lswscale -lavutil  -m64  -lm -lpthread -ldl \n",
      "install -d /home/ubuntu/bin\n",
      "install x264 /home/ubuntu/bin\n",
      "install -d /home/ubuntu/ffmpeg_build/include /home/ubuntu/ffmpeg_build/lib/pkgconfig\n",
      "install -m 644 ./x264.h x264_config.h /home/ubuntu/ffmpeg_build/include\n",
      "install -m 644 x264.pc /home/ubuntu/ffmpeg_build/lib/pkgconfig\n",
      "install -d /home/ubuntu/ffmpeg_build/lib\n",
      "install -m 644 libx264.a /home/ubuntu/ffmpeg_build/lib\n",
      "gcc-ranlib /home/ubuntu/ffmpeg_build/lib/libx264.a\n"
     ]
    },
    {
     "name": "stderr",
     "output_type": "stream",
     "text": [
      "In file included from encoder/analyse.c:33:0:\n",
      "encoder/rdo.c: In function ‘x264_8_quant_8x8_trellis’:\n",
      "encoder/rdo.c:1088:13: warning: assuming signed overflow does not occur when assuming that (X + c) >= X is always true [-Wstrict-overflow]\n",
      "             for( i = start; i <= end; i+=step )\n",
      "             ^~~\n",
      "encoder/rdo.c:1088:13: warning: assuming signed overflow does not occur when assuming that (X + c) >= X is always true [-Wstrict-overflow]\n",
      "encoder/rdo.c:1088:13: warning: assuming signed overflow does not occur when assuming that (X + c) >= X is always true [-Wstrict-overflow]\n",
      "encoder/rdo.c:1088:13: warning: assuming signed overflow does not occur when assuming that (X + c) >= X is always true [-Wstrict-overflow]\n",
      "encoder/rdo.c:1088:13: warning: assuming signed overflow does not occur when assuming that (X + c) >= X is always true [-Wstrict-overflow]\n",
      "encoder/rdo.c:1088:13: warning: assuming signed overflow does not occur when assuming that (X + c) >= X is always true [-Wstrict-overflow]\n",
      "encoder/rdo.c:1088:13: warning: assuming signed overflow does not occur when assuming that (X + c) >= X is always true [-Wstrict-overflow]\n",
      "encoder/rdo.c:1088:13: warning: assuming signed overflow does not occur when assuming that (X + c) >= X is always true [-Wstrict-overflow]\n",
      "encoder/rdo.c:1088:13: warning: assuming signed overflow does not occur when assuming that (X + c) >= X is always true [-Wstrict-overflow]\n",
      "encoder/rdo.c:1088:13: warning: assuming signed overflow does not occur when assuming that (X + c) >= X is always true [-Wstrict-overflow]\n",
      "encoder/rdo.c:1088:13: warning: assuming signed overflow does not occur when assuming that (X + c) >= X is always true [-Wstrict-overflow]\n",
      "encoder/rdo.c:1088:13: warning: assuming signed overflow does not occur when assuming that (X + c) >= X is always true [-Wstrict-overflow]\n",
      "encoder/rdo.c:1088:13: warning: assuming signed overflow does not occur when assuming that (X + c) >= X is always true [-Wstrict-overflow]\n",
      "encoder/rdo.c:1088:13: warning: assuming signed overflow does not occur when assuming that (X + c) >= X is always true [-Wstrict-overflow]\n",
      "encoder/rdo.c:1088:13: warning: assuming signed overflow does not occur when assuming that (X + c) >= X is always true [-Wstrict-overflow]\n",
      "encoder/encoder.c: In function ‘x264_8_encoder_open’:\n",
      "encoder/encoder.c:1788:38: warning: ‘%d’ directive output may be truncated writing between 1 and 10 bytes into a region of size 4 [-Wformat-truncation=]\n",
      "     snprintf( level, sizeof(level), \"%d.%d\", h->sps->i_level_idc/10, h->sps->i_level_idc%10 );\n",
      "                                      ^~\n",
      "encoder/encoder.c:1788:37: note: directive argument in the range [-214748364, 214748364]\n",
      "     snprintf( level, sizeof(level), \"%d.%d\", h->sps->i_level_idc/10, h->sps->i_level_idc%10 );\n",
      "                                     ^~~~~~~\n",
      "encoder/encoder.c:1788:37: note: directive argument in the range [-9, 9]\n",
      "In file included from /usr/include/stdio.h:862:0,\n",
      "                 from ./common/osdep.h:33,\n",
      "                 from ./common/base.h:43,\n",
      "                 from ./common/common.h:30,\n",
      "                 from encoder/encoder.c:28:\n",
      "/usr/include/x86_64-linux-gnu/bits/stdio2.h:64:10: note: ‘__builtin___snprintf_chk’ output between 4 and 14 bytes into a destination of size 4\n",
      "   return __builtin___snprintf_chk (__s, __n, __USE_FORTIFY_LEVEL - 1,\n",
      "          ^~~~~~~~~~~~~~~~~~~~~~~~~~~~~~~~~~~~~~~~~~~~~~~~~~~~~~~~~~~~\n",
      "        __bos (__s), __fmt, __va_arg_pack ());\n",
      "        ~~~~~~~~~~~~~~~~~~~~~~~~~~~~~~~~~~~~~\n",
      "In file included from encoder/analyse.c:33:0:\n",
      "encoder/rdo.c: In function ‘x264_10_quant_8x8_trellis’:\n",
      "encoder/rdo.c:1088:13: warning: assuming signed overflow does not occur when assuming that (X + c) >= X is always true [-Wstrict-overflow]\n",
      "             for( i = start; i <= end; i+=step )\n",
      "             ^~~\n",
      "encoder/rdo.c:1088:13: warning: assuming signed overflow does not occur when assuming that (X + c) >= X is always true [-Wstrict-overflow]\n",
      "encoder/rdo.c:1088:13: warning: assuming signed overflow does not occur when assuming that (X + c) >= X is always true [-Wstrict-overflow]\n",
      "encoder/rdo.c:1088:13: warning: assuming signed overflow does not occur when assuming that (X + c) >= X is always true [-Wstrict-overflow]\n",
      "encoder/rdo.c:1088:13: warning: assuming signed overflow does not occur when assuming that (X + c) >= X is always true [-Wstrict-overflow]\n",
      "encoder/rdo.c:1088:13: warning: assuming signed overflow does not occur when assuming that (X + c) >= X is always true [-Wstrict-overflow]\n",
      "encoder/rdo.c:1088:13: warning: assuming signed overflow does not occur when assuming that (X + c) >= X is always true [-Wstrict-overflow]\n",
      "encoder/rdo.c:1088:13: warning: assuming signed overflow does not occur when assuming that (X + c) >= X is always true [-Wstrict-overflow]\n",
      "encoder/rdo.c:1088:13: warning: assuming signed overflow does not occur when assuming that (X + c) >= X is always true [-Wstrict-overflow]\n",
      "encoder/rdo.c:1088:13: warning: assuming signed overflow does not occur when assuming that (X + c) >= X is always true [-Wstrict-overflow]\n",
      "encoder/rdo.c:1088:13: warning: assuming signed overflow does not occur when assuming that (X + c) >= X is always true [-Wstrict-overflow]\n",
      "encoder/rdo.c:1088:13: warning: assuming signed overflow does not occur when assuming that (X + c) >= X is always true [-Wstrict-overflow]\n",
      "encoder/rdo.c:1088:13: warning: assuming signed overflow does not occur when assuming that (X + c) >= X is always true [-Wstrict-overflow]\n",
      "encoder/rdo.c:1088:13: warning: assuming signed overflow does not occur when assuming that (X + c) >= X is always true [-Wstrict-overflow]\n",
      "encoder/rdo.c:1088:13: warning: assuming signed overflow does not occur when assuming that (X + c) >= X is always true [-Wstrict-overflow]\n",
      "encoder/encoder.c: In function ‘x264_10_encoder_open’:\n",
      "encoder/encoder.c:1788:38: warning: ‘%d’ directive output may be truncated writing between 1 and 10 bytes into a region of size 4 [-Wformat-truncation=]\n",
      "     snprintf( level, sizeof(level), \"%d.%d\", h->sps->i_level_idc/10, h->sps->i_level_idc%10 );\n",
      "                                      ^~\n",
      "encoder/encoder.c:1788:37: note: directive argument in the range [-214748364, 214748364]\n",
      "     snprintf( level, sizeof(level), \"%d.%d\", h->sps->i_level_idc/10, h->sps->i_level_idc%10 );\n",
      "                                     ^~~~~~~\n",
      "encoder/encoder.c:1788:37: note: directive argument in the range [-9, 9]\n",
      "In file included from /usr/include/stdio.h:862:0,\n",
      "                 from ./common/osdep.h:33,\n",
      "                 from ./common/base.h:43,\n",
      "                 from ./common/common.h:30,\n",
      "                 from encoder/encoder.c:28:\n",
      "/usr/include/x86_64-linux-gnu/bits/stdio2.h:64:10: note: ‘__builtin___snprintf_chk’ output between 4 and 14 bytes into a destination of size 4\n",
      "   return __builtin___snprintf_chk (__s, __n, __USE_FORTIFY_LEVEL - 1,\n",
      "          ^~~~~~~~~~~~~~~~~~~~~~~~~~~~~~~~~~~~~~~~~~~~~~~~~~~~~~~~~~~~\n",
      "        __bos (__s), __fmt, __va_arg_pack ());\n",
      "        ~~~~~~~~~~~~~~~~~~~~~~~~~~~~~~~~~~~~~\n"
     ]
    }
   ],
   "source": [
    "%%bash \n",
    "sudo apt-get update -qq && sudo apt-get -y install \\\n",
    "  autoconf \\\n",
    "  automake \\\n",
    "  build-essential \\\n",
    "  cmake \\\n",
    "  git-core \\\n",
    "  libass-dev \\\n",
    "  libfreetype6-dev \\\n",
    "  libgnutls28-dev \\\n",
    "  libsdl2-dev \\\n",
    "  libtool \\\n",
    "  libva-dev \\\n",
    "  libvdpau-dev \\\n",
    "  libvorbis-dev \\\n",
    "  libxcb1-dev \\\n",
    "  libxcb-shm0-dev \\\n",
    "  libxcb-xfixes0-dev \\\n",
    "  pkg-config \\\n",
    "  texinfo \\\n",
    "  wget \\\n",
    "  yasm \\\n",
    "  zlib1g-dev\n",
    "\n",
    "mkdir -p ~/ffmpeg_sources ~/bin\n",
    "\n",
    "sudo apt-get install nasm\n",
    "\n",
    "cd ~/ffmpeg_sources && \\\n",
    "git -C x264 pull 2> /dev/null || git clone --depth 1 https://code.videolan.org/videolan/x264.git && \\\n",
    "cd x264 && \\\n",
    "PATH=\"$HOME/bin:$PATH\" PKG_CONFIG_PATH=\"$HOME/ffmpeg_build/lib/pkgconfig\" ./configure --prefix=\"$HOME/ffmpeg_build\" --bindir=\"$HOME/bin\" --enable-static --enable-pic && \\\n",
    "PATH=\"$HOME/bin:$PATH\" make && \\\n",
    "make install\n"
   ]
  },
  {
   "cell_type": "code",
   "execution_count": 9,
   "metadata": {},
   "outputs": [
    {
     "name": "stdout",
     "output_type": "stream",
     "text": [
      "Process is interrupted.\n"
     ]
    }
   ],
   "source": [
    "%%bash \n",
    "cd ~/ffmpeg_sources && \\\n",
    "wget -O ffmpeg-snapshot.tar.bz2 https://ffmpeg.org/releases/ffmpeg-snapshot.tar.bz2 && \\\n",
    "tar xjvf ffmpeg-snapshot.tar.bz2 && \\\n",
    "cd ffmpeg && \\\n",
    "PATH=\"$HOME/bin:$PATH\" PKG_CONFIG_PATH=\"$HOME/ffmpeg_build/lib/pkgconfig\" ./configure \\\n",
    "  --prefix=\"$HOME/ffmpeg_build\" \\\n",
    "  --pkg-config-flags=\"--static\" \\\n",
    "  --extra-cflags=\"-I$HOME/ffmpeg_build/include\" \\\n",
    "  --extra-ldflags=\"-L$HOME/ffmpeg_build/lib\" \\\n",
    "  --extra-libs=\"-lpthread -lm\" \\\n",
    "  --bindir=\"$HOME/bin\" \\\n",
    "  --enable-gpl \\\n",
    "  --enable-libx264 && \\\n",
    "PATH=\"$HOME/bin:$PATH\" make && \\\n",
    "make install && \\\n",
    "hash -r\n"
   ]
  },
  {
   "cell_type": "code",
   "execution_count": null,
   "metadata": {},
   "outputs": [],
   "source": [
    "%%bash \n",
    "\n",
    "cd ~/ffmpeg_sources/ffmpeg/\n",
    "rm output.mp4\n",
    "time ./ffmpeg -i ~/yolo-gpu-opt-playground/input.mp4 -c:a copy -c:v h264 -b:v 5M output.mp4"
   ]
  },
  {
   "cell_type": "code",
   "execution_count": 5,
   "metadata": {},
   "outputs": [
    {
     "name": "stdout",
     "output_type": "stream",
     "text": [
      "sed 's#@@PREFIX@@#/usr/local#' ffnvcodec.pc.in > ffnvcodec.pc\n",
      "install -m 0755 -d '/usr/local/include/ffnvcodec'\n",
      "install -m 0644 include/ffnvcodec/*.h '/usr/local/include/ffnvcodec'\n",
      "install -m 0755 -d '/usr/local/lib/pkgconfig'\n",
      "install -m 0644 ffnvcodec.pc '/usr/local/lib/pkgconfig'\n",
      "ERROR: libx264 not found\n",
      "\n",
      "If you think configure made a mistake, make sure you are using the latest\n",
      "version from Git.  If the latest version fails, report the problem to the\n",
      "ffmpeg-user@ffmpeg.org mailing list or IRC #ffmpeg on irc.freenode.net.\n",
      "Include the log file \"ffbuild/config.log\" produced by configure as this will help\n",
      "solve the problem.\n"
     ]
    },
    {
     "name": "stderr",
     "output_type": "stream",
     "text": [
      "Cloning into 'ffmpeg'...\n",
      "Cloning into 'nv-codec-headers'...\n",
      "Makefile:2: ffbuild/config.mak: No such file or directory\n",
      "Makefile:40: /tools/Makefile: No such file or directory\n",
      "Makefile:41: /ffbuild/common.mak: No such file or directory\n",
      "Makefile:100: /libavutil/Makefile: No such file or directory\n",
      "Makefile:100: /ffbuild/library.mak: No such file or directory\n",
      "Makefile:102: /fftools/Makefile: No such file or directory\n",
      "Makefile:103: /doc/Makefile: No such file or directory\n",
      "Makefile:104: /doc/examples/Makefile: No such file or directory\n",
      "Makefile:170: /tests/Makefile: No such file or directory\n",
      "make: *** No rule to make target '/tests/Makefile'.  Stop.\n"
     ]
    },
    {
     "ename": "CalledProcessError",
     "evalue": "Command 'b'git clone https://git.ffmpeg.org/ffmpeg.git\\ngit clone https://github.com/FFmpeg/nv-codec-headers \\ncd nv-codec-headers\\nsudo make install \\ncd ../ffmpeg/\\n./configure --enable-cuda \\\\\\n            --enable-cuvid \\\\\\n            --enable-nvenc \\\\\\n            --enable-nonfree \\\\\\n            --enable-libnpp \\\\\\n            --extra-cflags=-I/usr/local/cuda/include \\\\\\n            --extra-ldflags=-L/usr/local/cuda/lib64 \\\\\\n            --enable-gpl \\\\\\n            --enable-libx264\\nmake -j 4             \\n'' returned non-zero exit status 2.",
     "output_type": "error",
     "traceback": [
      "\u001b[0;31m---------------------------------------------------------------------------\u001b[0m",
      "\u001b[0;31mCalledProcessError\u001b[0m                        Traceback (most recent call last)",
      "\u001b[0;32m<ipython-input-5-d61af857e095>\u001b[0m in \u001b[0;36m<module>\u001b[0;34m\u001b[0m\n\u001b[0;32m----> 1\u001b[0;31m \u001b[0mget_ipython\u001b[0m\u001b[0;34m(\u001b[0m\u001b[0;34m)\u001b[0m\u001b[0;34m.\u001b[0m\u001b[0mrun_cell_magic\u001b[0m\u001b[0;34m(\u001b[0m\u001b[0;34m'bash'\u001b[0m\u001b[0;34m,\u001b[0m \u001b[0;34m''\u001b[0m\u001b[0;34m,\u001b[0m \u001b[0;34m'git clone https://git.ffmpeg.org/ffmpeg.git\\ngit clone https://github.com/FFmpeg/nv-codec-headers \\ncd nv-codec-headers\\nsudo make install \\ncd ../ffmpeg/\\n./configure --enable-cuda \\\\\\n            --enable-cuvid \\\\\\n            --enable-nvenc \\\\\\n            --enable-nonfree \\\\\\n            --enable-libnpp \\\\\\n            --extra-cflags=-I/usr/local/cuda/include \\\\\\n            --extra-ldflags=-L/usr/local/cuda/lib64 \\\\\\n            --enable-gpl \\\\\\n            --enable-libx264\\nmake -j 4             \\n'\u001b[0m\u001b[0;34m)\u001b[0m\u001b[0;34m\u001b[0m\u001b[0;34m\u001b[0m\u001b[0m\n\u001b[0m",
      "\u001b[0;32m~/anaconda3/lib/python3.7/site-packages/IPython/core/interactiveshell.py\u001b[0m in \u001b[0;36mrun_cell_magic\u001b[0;34m(self, magic_name, line, cell)\u001b[0m\n\u001b[1;32m   2360\u001b[0m             \u001b[0;32mwith\u001b[0m \u001b[0mself\u001b[0m\u001b[0;34m.\u001b[0m\u001b[0mbuiltin_trap\u001b[0m\u001b[0;34m:\u001b[0m\u001b[0;34m\u001b[0m\u001b[0;34m\u001b[0m\u001b[0m\n\u001b[1;32m   2361\u001b[0m                 \u001b[0margs\u001b[0m \u001b[0;34m=\u001b[0m \u001b[0;34m(\u001b[0m\u001b[0mmagic_arg_s\u001b[0m\u001b[0;34m,\u001b[0m \u001b[0mcell\u001b[0m\u001b[0;34m)\u001b[0m\u001b[0;34m\u001b[0m\u001b[0;34m\u001b[0m\u001b[0m\n\u001b[0;32m-> 2362\u001b[0;31m                 \u001b[0mresult\u001b[0m \u001b[0;34m=\u001b[0m \u001b[0mfn\u001b[0m\u001b[0;34m(\u001b[0m\u001b[0;34m*\u001b[0m\u001b[0margs\u001b[0m\u001b[0;34m,\u001b[0m \u001b[0;34m**\u001b[0m\u001b[0mkwargs\u001b[0m\u001b[0;34m)\u001b[0m\u001b[0;34m\u001b[0m\u001b[0;34m\u001b[0m\u001b[0m\n\u001b[0m\u001b[1;32m   2363\u001b[0m             \u001b[0;32mreturn\u001b[0m \u001b[0mresult\u001b[0m\u001b[0;34m\u001b[0m\u001b[0;34m\u001b[0m\u001b[0m\n\u001b[1;32m   2364\u001b[0m \u001b[0;34m\u001b[0m\u001b[0m\n",
      "\u001b[0;32m~/anaconda3/lib/python3.7/site-packages/IPython/core/magics/script.py\u001b[0m in \u001b[0;36mnamed_script_magic\u001b[0;34m(line, cell)\u001b[0m\n\u001b[1;32m    140\u001b[0m             \u001b[0;32melse\u001b[0m\u001b[0;34m:\u001b[0m\u001b[0;34m\u001b[0m\u001b[0;34m\u001b[0m\u001b[0m\n\u001b[1;32m    141\u001b[0m                 \u001b[0mline\u001b[0m \u001b[0;34m=\u001b[0m \u001b[0mscript\u001b[0m\u001b[0;34m\u001b[0m\u001b[0;34m\u001b[0m\u001b[0m\n\u001b[0;32m--> 142\u001b[0;31m             \u001b[0;32mreturn\u001b[0m \u001b[0mself\u001b[0m\u001b[0;34m.\u001b[0m\u001b[0mshebang\u001b[0m\u001b[0;34m(\u001b[0m\u001b[0mline\u001b[0m\u001b[0;34m,\u001b[0m \u001b[0mcell\u001b[0m\u001b[0;34m)\u001b[0m\u001b[0;34m\u001b[0m\u001b[0;34m\u001b[0m\u001b[0m\n\u001b[0m\u001b[1;32m    143\u001b[0m \u001b[0;34m\u001b[0m\u001b[0m\n\u001b[1;32m    144\u001b[0m         \u001b[0;31m# write a basic docstring:\u001b[0m\u001b[0;34m\u001b[0m\u001b[0;34m\u001b[0m\u001b[0;34m\u001b[0m\u001b[0m\n",
      "\u001b[0;32m</home/ubuntu/anaconda3/lib/python3.7/site-packages/decorator.py:decorator-gen-110>\u001b[0m in \u001b[0;36mshebang\u001b[0;34m(self, line, cell)\u001b[0m\n",
      "\u001b[0;32m~/anaconda3/lib/python3.7/site-packages/IPython/core/magic.py\u001b[0m in \u001b[0;36m<lambda>\u001b[0;34m(f, *a, **k)\u001b[0m\n\u001b[1;32m    185\u001b[0m     \u001b[0;31m# but it's overkill for just that one bit of state.\u001b[0m\u001b[0;34m\u001b[0m\u001b[0;34m\u001b[0m\u001b[0;34m\u001b[0m\u001b[0m\n\u001b[1;32m    186\u001b[0m     \u001b[0;32mdef\u001b[0m \u001b[0mmagic_deco\u001b[0m\u001b[0;34m(\u001b[0m\u001b[0marg\u001b[0m\u001b[0;34m)\u001b[0m\u001b[0;34m:\u001b[0m\u001b[0;34m\u001b[0m\u001b[0;34m\u001b[0m\u001b[0m\n\u001b[0;32m--> 187\u001b[0;31m         \u001b[0mcall\u001b[0m \u001b[0;34m=\u001b[0m \u001b[0;32mlambda\u001b[0m \u001b[0mf\u001b[0m\u001b[0;34m,\u001b[0m \u001b[0;34m*\u001b[0m\u001b[0ma\u001b[0m\u001b[0;34m,\u001b[0m \u001b[0;34m**\u001b[0m\u001b[0mk\u001b[0m\u001b[0;34m:\u001b[0m \u001b[0mf\u001b[0m\u001b[0;34m(\u001b[0m\u001b[0;34m*\u001b[0m\u001b[0ma\u001b[0m\u001b[0;34m,\u001b[0m \u001b[0;34m**\u001b[0m\u001b[0mk\u001b[0m\u001b[0;34m)\u001b[0m\u001b[0;34m\u001b[0m\u001b[0;34m\u001b[0m\u001b[0m\n\u001b[0m\u001b[1;32m    188\u001b[0m \u001b[0;34m\u001b[0m\u001b[0m\n\u001b[1;32m    189\u001b[0m         \u001b[0;32mif\u001b[0m \u001b[0mcallable\u001b[0m\u001b[0;34m(\u001b[0m\u001b[0marg\u001b[0m\u001b[0;34m)\u001b[0m\u001b[0;34m:\u001b[0m\u001b[0;34m\u001b[0m\u001b[0;34m\u001b[0m\u001b[0m\n",
      "\u001b[0;32m~/anaconda3/lib/python3.7/site-packages/IPython/core/magics/script.py\u001b[0m in \u001b[0;36mshebang\u001b[0;34m(self, line, cell)\u001b[0m\n\u001b[1;32m    243\u001b[0m             \u001b[0msys\u001b[0m\u001b[0;34m.\u001b[0m\u001b[0mstderr\u001b[0m\u001b[0;34m.\u001b[0m\u001b[0mflush\u001b[0m\u001b[0;34m(\u001b[0m\u001b[0;34m)\u001b[0m\u001b[0;34m\u001b[0m\u001b[0;34m\u001b[0m\u001b[0m\n\u001b[1;32m    244\u001b[0m         \u001b[0;32mif\u001b[0m \u001b[0margs\u001b[0m\u001b[0;34m.\u001b[0m\u001b[0mraise_error\u001b[0m \u001b[0;32mand\u001b[0m \u001b[0mp\u001b[0m\u001b[0;34m.\u001b[0m\u001b[0mreturncode\u001b[0m\u001b[0;34m!=\u001b[0m\u001b[0;36m0\u001b[0m\u001b[0;34m:\u001b[0m\u001b[0;34m\u001b[0m\u001b[0;34m\u001b[0m\u001b[0m\n\u001b[0;32m--> 245\u001b[0;31m             \u001b[0;32mraise\u001b[0m \u001b[0mCalledProcessError\u001b[0m\u001b[0;34m(\u001b[0m\u001b[0mp\u001b[0m\u001b[0;34m.\u001b[0m\u001b[0mreturncode\u001b[0m\u001b[0;34m,\u001b[0m \u001b[0mcell\u001b[0m\u001b[0;34m,\u001b[0m \u001b[0moutput\u001b[0m\u001b[0;34m=\u001b[0m\u001b[0mout\u001b[0m\u001b[0;34m,\u001b[0m \u001b[0mstderr\u001b[0m\u001b[0;34m=\u001b[0m\u001b[0merr\u001b[0m\u001b[0;34m)\u001b[0m\u001b[0;34m\u001b[0m\u001b[0;34m\u001b[0m\u001b[0m\n\u001b[0m\u001b[1;32m    246\u001b[0m \u001b[0;34m\u001b[0m\u001b[0m\n\u001b[1;32m    247\u001b[0m     \u001b[0;32mdef\u001b[0m \u001b[0m_run_script\u001b[0m\u001b[0;34m(\u001b[0m\u001b[0mself\u001b[0m\u001b[0;34m,\u001b[0m \u001b[0mp\u001b[0m\u001b[0;34m,\u001b[0m \u001b[0mcell\u001b[0m\u001b[0;34m,\u001b[0m \u001b[0mto_close\u001b[0m\u001b[0;34m)\u001b[0m\u001b[0;34m:\u001b[0m\u001b[0;34m\u001b[0m\u001b[0;34m\u001b[0m\u001b[0m\n",
      "\u001b[0;31mCalledProcessError\u001b[0m: Command 'b'git clone https://git.ffmpeg.org/ffmpeg.git\\ngit clone https://github.com/FFmpeg/nv-codec-headers \\ncd nv-codec-headers\\nsudo make install \\ncd ../ffmpeg/\\n./configure --enable-cuda \\\\\\n            --enable-cuvid \\\\\\n            --enable-nvenc \\\\\\n            --enable-nonfree \\\\\\n            --enable-libnpp \\\\\\n            --extra-cflags=-I/usr/local/cuda/include \\\\\\n            --extra-ldflags=-L/usr/local/cuda/lib64 \\\\\\n            --enable-gpl \\\\\\n            --enable-libx264\\nmake -j 4             \\n'' returned non-zero exit status 2."
     ]
    }
   ],
   "source": [
    "%%bash \n",
    "git clone https://git.ffmpeg.org/ffmpeg.git\n",
    "git clone https://github.com/FFmpeg/nv-codec-headers \n",
    "cd nv-codec-headers\n",
    "sudo make install \n",
    "cd ../ffmpeg/\n",
    "./configure --enable-cuda \\\n",
    "            --enable-cuvid \\\n",
    "            --enable-nvenc \\\n",
    "            --enable-nonfree \\\n",
    "            --enable-libnpp \\\n",
    "            --extra-cflags=-I/usr/local/cuda/include \\\n",
    "            --extra-ldflags=-L/usr/local/cuda/lib64 \\\n",
    "            --enable-gpl \\\n",
    "            --enable-libx264\n",
    "make -j 4             "
   ]
  },
  {
   "cell_type": "code",
   "execution_count": 11,
   "metadata": {},
   "outputs": [
    {
     "name": "stderr",
     "output_type": "stream",
     "text": [
      "ffmpeg version N-99404-g56ff01e6ec Copyright (c) 2000-2020 the FFmpeg developers\n",
      "  built with gcc 7 (Ubuntu 7.5.0-3ubuntu1~18.04)\n",
      "  configuration: --enable-cuda --enable-cuvid --enable-nvenc --enable-nonfree --enable-libnpp --extra-cflags=-I/usr/local/cuda/include --extra-ldflags=-L/usr/local/cuda/lib64 --enable-gpl --enable-libx264\n",
      "  libavutil      56. 60.100 / 56. 60.100\n",
      "  libavcodec     58.108.100 / 58.108.100\n",
      "  libavformat    58. 59.100 / 58. 59.100\n",
      "  libavdevice    58. 11.102 / 58. 11.102\n",
      "  libavfilter     7. 87.100 /  7. 87.100\n",
      "  libswscale      5.  8.100 /  5.  8.100\n",
      "  libswresample   3.  8.100 /  3.  8.100\n",
      "  libpostproc    55.  8.100 / 55.  8.100\n",
      "Input #0, mov,mp4,m4a,3gp,3g2,mj2, from '/home/ubuntu/yolo-gpu-opt-playground/input.mp4':\n",
      "  Metadata:\n",
      "    major_brand     : isom\n",
      "    minor_version   : 512\n",
      "    compatible_brands: isomiso2avc1mp41\n",
      "    title           : Networking in the Cloud Fundamentals: Connectivity Issues in EC2\n",
      "    artist          : AWS Morning Brief\n",
      "    encoder         : Lavf58.29.100\n",
      "  Duration: 00:40:08.49, start: 0.000000, bitrate: 341 kb/s\n",
      "    Stream #0:0(und): Video: h264 (Constrained Baseline) (avc1 / 0x31637661), yuv420p(tv, bt709), 640x360 [SAR 1:1 DAR 16:9], 240 kb/s, 25 fps, 25 tbr, 12800 tbn, 50 tbc (default)\n",
      "    Metadata:\n",
      "      handler_name    : ISO Media file produced by Google Inc. Created on: 02/06/2020.\n",
      "    Stream #0:1(eng): Audio: aac (LC) (mp4a / 0x6134706D), 44100 Hz, stereo, fltp, 96 kb/s (default)\n",
      "    Metadata:\n",
      "      handler_name    : ISO Media file produced by Google Inc. Created on: 02/06/2020.\n",
      "Stream mapping:\n",
      "  Stream #0:0 -> #0:0 (h264 (native) -> h264 (h264_nvenc))\n",
      "  Stream #0:1 -> #0:1 (copy)\n",
      "Press [q] to stop, [?] for help\n",
      "Output #0, mp4, to 'output.mp4':\n",
      "  Metadata:\n",
      "    major_brand     : isom\n",
      "    minor_version   : 512\n",
      "    compatible_brands: isomiso2avc1mp41\n",
      "    title           : Networking in the Cloud Fundamentals: Connectivity Issues in EC2\n",
      "    artist          : AWS Morning Brief\n",
      "    encoder         : Lavf58.59.100\n",
      "    Stream #0:0(und): Video: h264 (h264_nvenc) (Main) (avc1 / 0x31637661), yuv420p, 640x360 [SAR 1:1 DAR 16:9], q=-1--1, 5000 kb/s, 25 fps, 12800 tbn, 25 tbc (default)\n",
      "    Metadata:\n",
      "      handler_name    : ISO Media file produced by Google Inc. Created on: 02/06/2020.\n",
      "      encoder         : Lavc58.108.100 h264_nvenc\n",
      "    Side data:\n",
      "      cpb: bitrate max/min/avg: 0/0/5000000 buffer size: 10000000 vbv_delay: N/A\n",
      "    Stream #0:1(eng): Audio: aac (LC) (mp4a / 0x6134706D), 44100 Hz, stereo, fltp, 96 kb/s (default)\n",
      "    Metadata:\n",
      "      handler_name    : ISO Media file produced by Google Inc. Created on: 02/06/2020.\n",
      "frame=  480 fps=0.0 q=8.0 size=    2048kB time=00:00:19.48 bitrate= 861.2kbits/s speed=  39x    \r",
      "frame= 1732 fps=1732 q=8.0 size=    7936kB time=00:01:09.56 bitrate= 934.5kbits/s speed=69.6x    \r",
      "frame= 3122 fps=2081 q=9.0 size=   13568kB time=00:02:05.17 bitrate= 887.9kbits/s speed=83.4x    \r",
      "frame= 4544 fps=2272 q=8.0 size=   19968kB time=00:03:02.04 bitrate= 898.6kbits/s speed=  91x    \r",
      "frame= 5958 fps=2383 q=9.0 size=   25856kB time=00:03:58.60 bitrate= 887.7kbits/s speed=95.4x    \r",
      "frame= 7381 fps=2460 q=8.0 size=   32000kB time=00:04:55.52 bitrate= 887.1kbits/s speed=98.5x    \r",
      "frame= 8800 fps=2513 q=9.0 size=   38144kB time=00:05:52.29 bitrate= 887.0kbits/s speed= 101x    \r",
      "frame=10183 fps=2545 q=8.0 size=   44288kB time=00:06:47.60 bitrate= 890.1kbits/s speed= 102x    \r",
      "frame=11591 fps=2575 q=8.0 size=   50688kB time=00:07:43.93 bitrate= 895.0kbits/s speed= 103x    \r",
      "frame=13010 fps=2601 q=8.0 size=   56832kB time=00:08:40.68 bitrate= 894.1kbits/s speed= 104x    \r",
      "frame=14442 fps=2625 q=8.0 size=   63232kB time=00:09:37.96 bitrate= 896.2kbits/s speed= 105x    \r",
      "frame=15867 fps=2643 q=9.0 size=   69632kB time=00:10:34.97 bitrate= 898.3kbits/s speed= 106x    \r",
      "frame=17254 fps=2653 q=9.0 size=   76032kB time=00:11:30.44 bitrate= 902.1kbits/s speed= 106x    \r",
      "frame=18658 fps=2664 q=8.0 size=   82432kB time=00:12:26.61 bitrate= 904.5kbits/s speed= 107x    \r",
      "frame=20081 fps=2676 q=8.0 size=   88576kB time=00:13:23.52 bitrate= 903.0kbits/s speed= 107x    \r",
      "frame=21506 fps=2687 q=9.0 size=   94976kB time=00:14:20.53 bitrate= 904.1kbits/s speed= 108x    \r",
      "frame=22920 fps=2695 q=9.0 size=  101632kB time=00:15:17.09 bitrate= 907.8kbits/s speed= 108x    \r",
      "frame=24330 fps=2702 q=8.0 size=  108032kB time=00:16:13.49 bitrate= 909.1kbits/s speed= 108x    \r",
      "frame=25715 fps=2705 q=8.0 size=  114432kB time=00:17:08.89 bitrate= 911.1kbits/s speed= 108x    \r",
      "frame=27142 fps=2713 q=9.0 size=  120576kB time=00:18:05.97 bitrate= 909.6kbits/s speed= 109x    \r",
      "frame=28571 fps=2720 q=9.0 size=  127232kB time=00:19:03.14 bitrate= 911.8kbits/s speed= 109x    \r",
      "frame=29987 fps=2725 q=8.0 size=  133888kB time=00:19:59.77 bitrate= 914.2kbits/s speed= 109x    \r",
      "frame=31407 fps=2730 q=8.0 size=  140288kB time=00:20:56.57 bitrate= 914.6kbits/s speed= 109x    \r",
      "frame=32792 fps=2731 q=9.0 size=  147456kB time=00:21:51.97 bitrate= 920.7kbits/s speed= 109x    \r",
      "frame=34207 fps=2735 q=8.0 size=  154624kB time=00:22:48.56 bitrate= 925.6kbits/s speed= 109x    \r",
      "frame=35635 fps=2740 q=8.0 size=  162048kB time=00:23:45.68 bitrate= 931.1kbits/s speed= 110x    \r",
      "frame=37042 fps=2742 q=8.0 size=  169472kB time=00:24:41.96 bitrate= 936.8kbits/s speed= 110x    \r",
      "frame=38469 fps=2746 q=8.0 size=  176896kB time=00:25:39.04 bitrate= 941.6kbits/s speed= 110x    \r",
      "frame=39870 fps=2748 q=8.0 size=  183808kB time=00:26:35.09 bitrate= 944.0kbits/s speed= 110x    \r",
      "frame=41265 fps=2749 q=8.0 size=  190720kB time=00:27:30.89 bitrate= 946.4kbits/s speed= 110x    \r",
      "frame=42697 fps=2753 q=8.0 size=  197888kB time=00:28:28.17 bitrate= 949.0kbits/s speed= 110x    \r",
      "frame=44113 fps=2756 q=9.0 size=  205056kB time=00:29:24.80 bitrate= 951.8kbits/s speed= 110x    \r",
      "frame=45518 fps=2757 q=9.0 size=  211712kB time=00:30:21.00 bitrate= 952.4kbits/s speed= 110x    \r",
      "frame=46926 fps=2759 q=8.0 size=  218880kB time=00:31:17.33 bitrate= 955.1kbits/s speed= 110x    \r",
      "frame=48319 fps=2760 q=8.0 size=  225792kB time=00:32:13.06 bitrate= 956.9kbits/s speed= 110x    \r",
      "frame=49727 fps=2761 q=8.0 size=  232704kB time=00:33:09.36 bitrate= 958.2kbits/s speed= 110x    \r",
      "frame=51140 fps=2763 q=8.0 size=  239616kB time=00:34:05.88 bitrate= 959.5kbits/s speed= 111x    \r",
      "frame=52552 fps=2764 q=8.0 size=  246784kB time=00:35:02.38 bitrate= 961.6kbits/s speed= 111x    \r",
      "frame=53976 fps=2767 q=9.0 size=  254208kB time=00:35:59.33 bitrate= 964.4kbits/s speed= 111x    \r",
      "frame=55378 fps=2767 q=8.0 size=  260864kB time=00:36:55.41 bitrate= 964.6kbits/s speed= 111x    \r",
      "frame=56774 fps=2768 q=8.0 size=  267520kB time=00:37:51.25 bitrate= 964.9kbits/s speed= 111x    \r",
      "frame=58184 fps=2769 q=9.0 size=  274688kB time=00:38:47.66 bitrate= 966.7kbits/s speed= 111x    \r",
      "frame=59599 fps=2771 q=8.0 size=  281600kB time=00:39:44.24 bitrate= 967.5kbits/s speed= 111x    \r",
      "frame=60211 fps=2771 q=8.0 Lsize=  286579kB time=00:40:08.46 bitrate= 974.8kbits/s speed= 111x    \n",
      "video:256850kB audio:28225kB subtitle:0kB other streams:0kB global headers:0kB muxing overhead: 0.527827%\n",
      "\n",
      "real\t0m21.957s\n",
      "user\t0m31.997s\n",
      "sys\t0m1.600s\n"
     ]
    }
   ],
   "source": [
    "%%bash \n",
    "rm output.mp4\n",
    "time ffmpeg/ffmpeg -i ~/yolo-gpu-opt-playground/input.mp4 -c:a copy -c:v h264_nvenc -b:v 5M output.mp4\n"
   ]
  },
  {
   "cell_type": "code",
   "execution_count": null,
   "metadata": {},
   "outputs": [],
   "source": []
  }
 ],
 "metadata": {
  "kernelspec": {
   "display_name": "Python 3",
   "language": "python",
   "name": "python3"
  },
  "language_info": {
   "codemirror_mode": {
    "name": "ipython",
    "version": 3
   },
   "file_extension": ".py",
   "mimetype": "text/x-python",
   "name": "python",
   "nbconvert_exporter": "python",
   "pygments_lexer": "ipython3",
   "version": "3.7.6"
  }
 },
 "nbformat": 4,
 "nbformat_minor": 4
}
